<?xml version="1.0" encoding="UTF-8"?>
<svg version="1.1" xmlns="http://www.w3.org/2000/svg" width="150" height="153">
<path d="M0 0 C5.28 0 10.56 0 16 0 C17.49035891 5.21625619 18.24741966 7.92789703 18 13 C25.89153779 14.71957592 25.89153779 14.71957592 33.19921875 12.5078125 C34.66808986 10.73663135 35.89807394 9.01768196 37 7 C42.80342274 8.48805711 47.17590879 11.59097555 52 15 C51.40075776 19.19469571 50.42500059 23.00999834 49 27 C49.804375 27.61875 50.60875 28.2375 51.4375 28.875 C54 31 54 31 55 33 C55.60328125 32.855625 56.2065625 32.71125 56.828125 32.5625 C57.62734375 32.376875 58.4265625 32.19125 59.25 32 C60.03890625 31.814375 60.8278125 31.62875 61.640625 31.4375 C64 31 64 31 68 31 C69.921875 33.4140625 69.921875 33.4140625 71.75 36.625 C72.36359375 37.66914062 72.9771875 38.71328125 73.609375 39.7890625 C75.097334 43.22474311 75.5087142 45.30403558 75 49 C73.2897647 51.31258233 71.42876595 52.34843915 69 54 C68.34 54 67.68 54 67 54 C67.33 54.721875 67.66 55.44375 68 56.1875 C69.01335535 59.03756191 69.08031402 61.01332251 69 64 C69.78246094 64.06058594 70.56492188 64.12117188 71.37109375 64.18359375 C72.88896484 64.30927734 72.88896484 64.30927734 74.4375 64.4375 C75.95150391 64.55931641 75.95150391 64.55931641 77.49609375 64.68359375 C80 65 80 65 81 66 C81.08669432 67.4887186 81.10703494 68.981445 81.09765625 70.47265625 C81.09443359 71.37177734 81.09121094 72.27089844 81.08789062 73.19726562 C81.07951172 74.14279297 81.07113281 75.08832031 81.0625 76.0625 C81.05798828 77.01189453 81.05347656 77.96128906 81.04882812 78.93945312 C81.03700128 81.29299531 81.01906521 83.64650532 81 86 C75.555 86.99 75.555 86.99 70 88 C69.34 90.97 68.68 93.94 68 97 C69.7325 98.051875 69.7325 98.051875 71.5 99.125 C73.46875 100.3203125 73.46875 100.3203125 75 102 C75.80497615 107.11734839 74.17260685 110.07973898 71.5 114.375 C70.8503125 115.43460937 70.200625 116.49421875 69.53125 117.5859375 C69.0259375 118.38257812 68.520625 119.17921875 68 120 C63.428721 119.45144652 59.32564205 118.58255197 55 117 C54.62875 117.86625 54.62875 117.86625 54.25 118.75 C52.83316683 121.3002997 51.12372463 123.01785701 49 125 C49.515625 126.051875 50.03125 127.10375 50.5625 128.1875 C51.71511956 130.53884391 52.00474225 131.89008138 51.890625 134.53515625 C50.69863932 137.8340289 49.21907287 138.56332695 46.1875 140.25 C45.31480469 140.75015625 44.44210938 141.2503125 43.54296875 141.765625 C41.32674931 142.84139358 39.40528913 143.5290343 37 144 C36.47212891 143.22462891 36.47212891 143.22462891 35.93359375 142.43359375 C34.39951539 140.38682079 32.96092913 138.64700846 31 137 C27.41094915 136.83414809 27.41094915 136.83414809 24 138 C22.35 138.33 20.7 138.66 19 139 C18.01 142.96 17.02 146.92 16 151 C10.72 151 5.44 151 0 151 C-0.99 147.04 -1.98 143.08 -3 139 C-6.96 138.01 -10.92 137.02 -15 136 C-15.66 137.32 -16.32 138.64 -17 140 C-17.97581759 141.35113205 -18.97029741 142.68946944 -20 144 C-24.06225548 143.42176904 -26.84762346 142.10882263 -30.3125 139.9375 C-31.19550781 139.38964844 -32.07851563 138.84179688 -32.98828125 138.27734375 C-33.65214844 137.85582031 -34.31601562 137.43429688 -35 137 C-34.85769192 135.58297487 -34.71099254 134.1663904 -34.5625 132.75 C-34.48128906 131.96109375 -34.40007813 131.1721875 -34.31640625 130.359375 C-34 128 -34 128 -33.30078125 125.91015625 C-32.78214309 123.94321006 -32.78214309 123.94321006 -34.0390625 122.26171875 C-35.632457 120.6800981 -37.13820876 119.25855352 -39 118 C-41.51047485 117.93453102 -41.51047485 117.93453102 -44 119 C-47.5625 119.875 -47.5625 119.875 -51 120 C-53.1875 118 -53.1875 118 -55 115 C-55.55880859 114.14921875 -55.55880859 114.14921875 -56.12890625 113.28125 C-57.72042597 110.75256361 -58.91284067 108.32486659 -59.6875 105.4375 C-58.84220244 102.44053594 -57.91590555 102.08703837 -55.4375 100.3125 C-53.43868478 98.90152133 -53.43868478 98.90152133 -52 97 C-51.6761869 93.51639773 -52.20235033 90.39168684 -53 87 C-53.78246094 86.93941406 -54.56492187 86.87882812 -55.37109375 86.81640625 C-56.88896484 86.69072266 -56.88896484 86.69072266 -58.4375 86.5625 C-59.95150391 86.44068359 -59.95150391 86.44068359 -61.49609375 86.31640625 C-64 86 -64 86 -65 85 C-65.08651611 83.58429877 -65.10704904 82.164405 -65.09765625 80.74609375 C-65.09443359 79.89208984 -65.09121094 79.03808594 -65.08789062 78.15820312 C-65.07951172 77.26037109 -65.07113281 76.36253906 -65.0625 75.4375 C-65.05798828 74.53580078 -65.05347656 73.63410156 -65.04882812 72.70507812 C-65.03700225 70.46998686 -65.0205222 68.23502563 -65 66 C-60.69214025 64.64851459 -57.58042408 64 -53 64 C-52.67 60.7 -52.34 57.4 -52 54 C-54.31 52.35 -56.62 50.7 -59 49 C-58.71456536 42.43500322 -56.16488182 37.09149487 -52 32 C-48.87121149 30.6058581 -46.50651859 31.12337035 -43.25 31.9375 C-42.45078125 32.13214844 -41.6515625 32.32679687 -40.828125 32.52734375 C-40.22484375 32.68332031 -39.6215625 32.83929688 -39 33 C-36.72464845 30.8274892 -34.66670494 28.67863295 -33 26 C-33.51224485 22.87966141 -33.51224485 22.87966141 -35 20 C-35.44921875 17.05859375 -35.44921875 17.05859375 -35 14 C-32.48046875 11.8828125 -32.48046875 11.8828125 -29.1875 10.125 C-28.10855469 9.52945312 -27.02960937 8.93390625 -25.91796875 8.3203125 C-23 7 -23 7 -20 7 C-15 12.34883721 -15 12.34883721 -15 15 C-13.783125 14.67 -12.56625 14.34 -11.3125 14 C-8.12614464 13.13590363 -5.30156655 12.90748675 -2 13 C-1.93941406 12.31292969 -1.87882812 11.62585937 -1.81640625 10.91796875 C-1.73261719 10.01691406 -1.64882812 9.11585937 -1.5625 8.1875 C-1.48128906 7.29417969 -1.40007812 6.40085937 -1.31640625 5.48046875 C-1 3 -1 3 0 0 Z " fill="#84AAD3" transform="translate(67,1)"/>
<path d="M0 0 C0.57363281 0.28875 1.14726563 0.5775 1.73828125 0.875 C-1.73185473 2.03171199 -2.23731193 1.69046179 -5.51171875 0.4375 C-16.23823482 -2.94487587 -27.20069576 -2.07597772 -37.26171875 2.875 C-37.59171875 3.205 -37.92171875 3.535 -38.26171875 3.875 C-36.61171875 3.215 -34.96171875 2.555 -33.26171875 1.875 C-33.26171875 5.175 -33.26171875 8.475 -33.26171875 11.875 C-32.30910156 11.50246094 -31.35648438 11.12992188 -30.375 10.74609375 C-29.10832146 10.26757075 -27.84138025 9.78974264 -26.57421875 9.3125 C-25.94837891 9.06564453 -25.32253906 8.81878906 -24.67773438 8.56445312 C-17.74302669 5.98662985 -13.63359737 8.00140768 -7.26171875 10.875 C-7.59171875 12.195 -7.92171875 13.515 -8.26171875 14.875 C-9.22078125 14.1325 -9.22078125 14.1325 -10.19921875 13.375 C-14.31923073 11.35703495 -17.750901 11.15588413 -22.26171875 11.875 C-25.37019448 13.24442449 -25.37019448 13.24442449 -27.26171875 15.875 C-28.52687337 20.51390027 -28.61139715 23.64557888 -26.26171875 27.875 C-24.25179137 30.34172906 -22.15053774 31.58001218 -19.26171875 32.875 C-20.72619181 36.82397712 -22.57981511 40.36282988 -24.69921875 44 C-25.29605469 45.03382812 -25.89289063 46.06765625 -26.5078125 47.1328125 C-27.9641267 49.40972245 -29.17031524 51.18556541 -31.26171875 52.875 C-31.92171875 52.875 -32.58171875 52.875 -33.26171875 52.875 C-33.51636375 60.65861666 -33.51636375 60.65861666 -31.03515625 67.78125 C-28.16286786 70.19691819 -24.81249576 71.7262192 -21.26171875 72.875 C-21.26171875 73.535 -21.26171875 74.195 -21.26171875 74.875 C-22.25171875 75.37 -22.25171875 75.37 -23.26171875 75.875 C-23.26171875 76.535 -23.26171875 77.195 -23.26171875 77.875 C-20.29171875 77.875 -17.32171875 77.875 -14.26171875 77.875 C-14.59171875 76.225 -14.92171875 74.575 -15.26171875 72.875 C-14.41287109 72.45927734 -14.41287109 72.45927734 -13.546875 72.03515625 C-12.44666016 71.49181641 -12.44666016 71.49181641 -11.32421875 70.9375 C-10.59332031 70.57785156 -9.86242187 70.21820313 -9.109375 69.84765625 C-7.29922848 69.01128173 -7.29922848 69.01128173 -6.26171875 67.875 C-6.22108043 66.20882885 -6.21899775 64.54111905 -6.26171875 62.875 C-7.58171875 62.545 -8.90171875 62.215 -10.26171875 61.875 C-10.59171875 62.535 -10.92171875 63.195 -11.26171875 63.875 C-14.19921875 63.125 -14.19921875 63.125 -17.26171875 61.875 C-17.75671875 59.895 -17.75671875 59.895 -18.26171875 57.875 C-6.38171875 57.875 5.49828125 57.875 17.73828125 57.875 C17.73828125 52.265 17.73828125 46.655 17.73828125 40.875 C18.23328125 39.885 18.23328125 39.885 18.73828125 38.875 C17.08828125 39.205 15.43828125 39.535 13.73828125 39.875 C13.73828125 39.215 13.73828125 38.555 13.73828125 37.875 C12.41828125 37.875 11.09828125 37.875 9.73828125 37.875 C10.23328125 42.825 10.23328125 42.825 10.73828125 47.875 C9.08828125 47.875 7.43828125 47.875 5.73828125 47.875 C5.73828125 43.915 5.73828125 39.955 5.73828125 35.875 C8.02702298 34.53641476 10.31897781 33.20398986 12.61328125 31.875 C13.26425781 31.4934375 13.91523437 31.111875 14.5859375 30.71875 C19.51171875 27.875 19.51171875 27.875 21.73828125 27.875 C25.10119982 39.43503259 24.02307361 50.07883917 18.98828125 61.125 C13.44137339 71.21409279 4.7304405 78.12955323 -6.28125 81.3515625 C-6.93480469 81.52429688 -7.58835938 81.69703125 -8.26171875 81.875 C-9.06609375 82.101875 -9.87046875 82.32875 -10.69921875 82.5625 C-23.53640058 84.12800998 -33.59716482 81.01786354 -44.26171875 73.875 C-45.25171875 73.215 -46.24171875 72.555 -47.26171875 71.875 C-47.26171875 71.215 -47.26171875 70.555 -47.26171875 69.875 C-47.92171875 69.875 -48.58171875 69.875 -49.26171875 69.875 C-56.16582958 62.05588653 -59.26171875 54.22028158 -59.26171875 43.875 C-54.97171875 45.855 -50.68171875 47.835 -46.26171875 49.875 C-50.55171875 47.565 -54.84171875 45.255 -59.26171875 42.875 C-59.69555269 31.45070626 -57.5520008 24.31042308 -51.26171875 14.875 C-50.93171875 14.215 -50.60171875 13.555 -50.26171875 12.875 C-51.25171875 13.535 -52.24171875 14.195 -53.26171875 14.875 C-49.70623561 6.60343559 -41.59164905 2.12475703 -33.64453125 -1.21484375 C-23.23627657 -5.19045579 -10.12915095 -4.42670027 0 0 Z " fill="#FAFAFA" transform="translate(93.26171875,34.125)"/>
<path d="M0 0 C0.7014917 0.19609863 1.4029834 0.39219727 2.12573242 0.59423828 C7.01762246 2.12409133 10.30553194 4.16919974 13.9375 7.8125 C13.9375 8.8025 13.9375 9.7925 13.9375 10.8125 C15.37500191 12.50048827 15.37500191 12.50048827 16.9375 13.8125 C17.2675 13.1525 17.5975 12.4925 17.9375 11.8125 C25.52736948 20.64204817 28.2701919 28.96107379 28.375 40.5 C28.38515137 41.29575439 28.39530273 42.09150879 28.40576172 42.91137695 C28.32358965 48.48229617 27.14137104 52.69741468 24.9375 57.8125 C23.9375 55.8125 23.9375 55.8125 24.875 52.625 C26.94531847 44.96341327 27.41524119 35.03019302 23.9375 27.8125 C15.95849208 30.98585758 15.95849208 30.98585758 8.9375 35.8125 C7.36216246 39.95281021 7.36331812 43.45162496 7.9375 47.8125 C9.5875 47.8125 11.2375 47.8125 12.9375 47.8125 C12.6075 44.5125 12.2775 41.2125 11.9375 37.8125 C15.28002724 37.73822162 17.7410914 37.74703047 20.9375 38.8125 C20.6075 45.0825 20.2775 51.3525 19.9375 57.8125 C2.6125 58.3075 2.6125 58.3075 -15.0625 58.8125 C-15.0625 59.8025 -15.0625 60.7925 -15.0625 61.8125 C-14.134375 62.0290625 -14.134375 62.0290625 -13.1875 62.25 C-11.0625 62.8125 -11.0625 62.8125 -9.0625 63.8125 C-8.5675 62.3275 -8.5675 62.3275 -8.0625 60.8125 C-4.1875 61.6875 -4.1875 61.6875 -3.0625 62.8125 C-2.77981425 65.49801458 -2.66426688 67.18001211 -4.125 69.5 C-6.90560871 71.38363816 -9.8259066 72.0186186 -13.0625 72.8125 C-12.4025 74.4625 -11.7425 76.1125 -11.0625 77.8125 C-12.0625 78.8125 -12.0625 78.8125 -14.12890625 78.91015625 C-15.36447266 78.89275391 -15.36447266 78.89275391 -16.625 78.875 C-17.86443359 78.86146484 -17.86443359 78.86146484 -19.12890625 78.84765625 C-20.08603516 78.83025391 -20.08603516 78.83025391 -21.0625 78.8125 C-21.0625 77.4925 -21.0625 76.1725 -21.0625 74.8125 C-20.4025 74.8125 -19.7425 74.8125 -19.0625 74.8125 C-19.0625 74.1525 -19.0625 73.4925 -19.0625 72.8125 C-20.114375 72.585625 -21.16625 72.35875 -22.25 72.125 C-26.33735209 70.90625607 -28.54405164 69.36795651 -31.0625 65.8125 C-32.10658627 61.27362495 -32.54455394 57.25866181 -31.0625 52.8125 C-30.30582031 52.23757812 -29.54914062 51.66265625 -28.76953125 51.0703125 C-25.45831763 48.30857877 -23.78487202 45.43290012 -21.75 41.6875 C-21.39099609 41.05457031 -21.03199219 40.42164063 -20.66210938 39.76953125 C-18.70472938 36.48992832 -18.70472938 36.48992832 -18.0625 32.8125 C-19.71321396 31.78638051 -21.38220006 30.78941857 -23.0625 29.8125 C-25.75307726 27.58671833 -26.58552331 25.95211878 -27.0625 22.5 C-27.37203989 18.9198499 -27.04032312 17.10277566 -24.75 14.3125 C-20.80300678 10.6408784 -18.53106529 10.54455764 -13.328125 10.578125 C-10.34296303 10.88693486 -8.41478002 11.99137999 -6.0625 13.8125 C-5.7325 12.8225 -5.4025 11.8325 -5.0625 10.8125 C-13.270657 7.58395825 -18.11339631 7.84531524 -26.23046875 11.19140625 C-28.0625 11.8125 -28.0625 11.8125 -31.0625 11.8125 C-31.3925 8.8425 -31.7225 5.8725 -32.0625 2.8125 C-33.01125 3.328125 -33.96 3.84375 -34.9375 4.375 C-35.96875 4.849375 -37 5.32375 -38.0625 5.8125 C-38.7225 5.4825 -39.3825 5.1525 -40.0625 4.8125 C-38.14838443 3.82835567 -36.2311033 2.85036651 -34.3125 1.875 C-33.24515625 1.32972656 -32.1778125 0.78445312 -31.078125 0.22265625 C-21.32163756 -4.33963904 -10.05870084 -2.89279908 0 0 Z " fill="#F9F8F4" transform="translate(91.0625,34.1875)"/>
<path d="M0 0 C3.19413541 1.59706771 3.99193774 4.82692575 5.48828125 7.96875 C6.86114833 10.21873574 6.86114833 10.21873574 9.49609375 10.828125 C12.56800637 11.03898952 14.31802939 10.48998367 17 9 C17.33 8.01 17.66 7.02 18 6 C18.73089844 6.92619141 18.73089844 6.92619141 19.4765625 7.87109375 C29.65112444 20.02507047 43.07071675 28.17286636 59 30 C78.63617247 31.47197009 93.83922422 26.88665942 109 14 C109.66 14 110.32 14 111 14 C111.268125 13.38125 111.53625 12.7625 111.8125 12.125 C113 10 113 10 116 8 C116.886875 8.474375 117.77375 8.94875 118.6875 9.4375 C121.57042756 10.79737149 123.87610623 11.54060386 127 12 C127.2475 11.319375 127.495 10.63875 127.75 9.9375 C129.24197908 6.43134917 131.06835511 3.28379632 133 0 C133.71484375 1.609375 133.71484375 1.609375 134 4 C132.56640625 7.015625 132.56640625 7.015625 130.5625 10.25 C129.90378906 11.32765625 129.24507812 12.4053125 128.56640625 13.515625 C128.04949219 14.33546875 127.53257812 15.1553125 127 16 C122.428721 15.45144652 118.32564205 14.58255197 114 13 C113.62875 13.86625 113.62875 13.86625 113.25 14.75 C111.83316683 17.3002997 110.12372463 19.01785701 108 21 C108.515625 22.051875 109.03125 23.10375 109.5625 24.1875 C110.71511956 26.53884391 111.00474225 27.89008138 110.890625 30.53515625 C109.69863932 33.8340289 108.21907287 34.56332695 105.1875 36.25 C104.31480469 36.75015625 103.44210938 37.2503125 102.54296875 37.765625 C100.32674931 38.84139358 98.40528913 39.5290343 96 40 C95.64808594 39.48308594 95.29617187 38.96617187 94.93359375 38.43359375 C93.39951539 36.38682079 91.96092913 34.64700846 90 33 C86.41094915 32.83414809 86.41094915 32.83414809 83 34 C81.35 34.33 79.7 34.66 78 35 C77.01 38.96 76.02 42.92 75 47 C69.72 47 64.44 47 59 47 C58.01 43.04 57.02 39.08 56 35 C52.04 34.01 48.08 33.02 44 32 C43.34 33.32 42.68 34.64 42 36 C41.02418241 37.35113205 40.02970259 38.68946944 39 40 C34.93774452 39.42176904 32.15237654 38.10882263 28.6875 35.9375 C27.80449219 35.38964844 26.92148437 34.84179688 26.01171875 34.27734375 C25.34785156 33.85582031 24.68398438 33.43429688 24 33 C24.14230808 31.58297487 24.28900746 30.1663904 24.4375 28.75 C24.51871094 27.96109375 24.59992187 27.1721875 24.68359375 26.359375 C25 24 25 24 25.69921875 21.91015625 C26.21785691 19.94321006 26.21785691 19.94321006 24.9609375 18.26171875 C23.367543 16.6800981 21.86179124 15.25855352 20 14 C17.48952515 13.93453102 17.48952515 13.93453102 15 15 C11.4375 15.875 11.4375 15.875 8 16 C5.8125 14 5.8125 14 4 11 C3.44119141 10.13181641 3.44119141 10.13181641 2.87109375 9.24609375 C0.75700744 5.83556427 0 4.09277463 0 0 Z " fill="#40546E" transform="translate(8,105)"/>
<path d="M0 0 C5.28 0 10.56 0 16 0 C17.49035891 5.21625619 18.24741966 7.92789703 18 13 C25.89153779 14.71957592 25.89153779 14.71957592 33.19921875 12.5078125 C34.66808986 10.73663135 35.89807394 9.01768196 37 7 C42.80342274 8.48805711 47.17590879 11.59097555 52 15 C51.40075776 19.19469571 50.42500059 23.00999834 49 27 C49.804375 27.61875 50.60875 28.2375 51.4375 28.875 C54 31 54 31 55 33 C55.60328125 32.855625 56.2065625 32.71125 56.828125 32.5625 C57.62734375 32.376875 58.4265625 32.19125 59.25 32 C60.03890625 31.814375 60.8278125 31.62875 61.640625 31.4375 C64 31 64 31 68 31 C69.921875 33.4140625 69.921875 33.4140625 71.75 36.625 C72.36359375 37.66914062 72.9771875 38.71328125 73.609375 39.7890625 C75.097334 43.22474311 75.5087142 45.30403558 75 49 C73.2897647 51.31258233 71.42876595 52.34843915 69 54 C68.34 54 67.68 54 67 54 C66.67 54.99 66.34 55.98 66 57 C65.5978125 55.89205078 65.5978125 55.89205078 65.1875 54.76171875 C58.40213759 37.19566541 46.96720582 25.66616641 30.078125 17.60546875 C16.11371713 12.37805152 -2.40207641 12.87135838 -16 19 C-16.93585937 19.4125 -17.87171875 19.825 -18.8359375 20.25 C-26.3641468 23.9613861 -32.04975468 29.17635564 -38 35 C-38 32 -38 32 -35.375 29.1875 C-34.199375 27.6096875 -34.199375 27.6096875 -33 26 C-33.60380471 22.93798554 -33.60380471 22.93798554 -35 20 C-35.4453125 17.0546875 -35.4453125 17.0546875 -35 14 C-32.48046875 11.8828125 -32.48046875 11.8828125 -29.1875 10.125 C-27.56908203 9.23167969 -27.56908203 9.23167969 -25.91796875 8.3203125 C-23 7 -23 7 -20 7 C-15 12.34883721 -15 12.34883721 -15 15 C-13.783125 14.67 -12.56625 14.34 -11.3125 14 C-8.12614464 13.13590363 -5.30156655 12.90748675 -2 13 C-1.93941406 12.31292969 -1.87882812 11.62585937 -1.81640625 10.91796875 C-1.73261719 10.01691406 -1.64882812 9.11585937 -1.5625 8.1875 C-1.48128906 7.29417969 -1.40007812 6.40085937 -1.31640625 5.48046875 C-1 3 -1 3 0 0 Z " fill="#92B5D7" transform="translate(67,1)"/>
<path d="M0 0 C0.66 0 1.32 0 2 0 C2.78375 0.804375 3.5675 1.60875 4.375 2.4375 C7.25481484 5.28741347 7.25481484 5.28741347 11 6 C11.66 5.67 12.32 5.34 13 5 C13.99 5.99 13.99 5.99 15 7 C15.33 7 15.66 7 16 7 C16.99 8.485 16.99 8.485 18 10 C18.33 10 18.66 10 19 10 C21 13 21 13 20.625 15.1875 C20.41875 15.785625 20.2125 16.38375 20 17 C21.65 16.67 23.3 16.34 25 16 C24.67 17.32 24.34 18.64 24 20 C25.98 20.495 25.98 20.495 28 21 C27.67 21.66 27.34 22.32 27 23 C27.66 23 28.32 23 29 23 C29 25 29 25 27.5 26.625 C27.005 27.07875 26.51 27.5325 26 28 C26.66 28 27.32 28 28 28 C28 27.34 28 26.68 28 26 C29.875 26.3125 29.875 26.3125 32 27 C32.99 28.485 32.99 28.485 34 30 C32.35 30 30.7 30 29 30 C28.67 31.32 28.34 32.64 28 34 C31.54518884 32.60240095 31.54518884 32.60240095 35 31 C33.84826645 33.46800047 32.95216435 35.04783565 31 37 C31 37.66 31 38.32 31 39 C32.32 39.66 33.64 40.32 35 41 C34.505 41.99 34.505 41.99 34 43 C32.68 43 31.36 43 30 43 C30 43.66 30 44.32 30 45 C31.32 45 32.64 45 34 45 C34.33 45.99 34.66 46.98 35 48 C33.35 47.67 31.7 47.34 30 47 C30.08378906 47.61488281 30.16757813 48.22976562 30.25390625 48.86328125 C30.40666016 50.07564453 30.40666016 50.07564453 30.5625 51.3125 C30.71912109 52.51326172 30.71912109 52.51326172 30.87890625 53.73828125 C31 56 31 56 30 59 C30.33 59.33 30.66 59.66 31 60 C31.66 60.66 32.32 61.32 33 62 C31.02 62 29.04 62 27 62 C26.67 63.32 26.34 64.64 26 66 C27.485 66.495 27.485 66.495 29 67 C27.64567309 68.35432691 26.2697269 69.68731586 24.875 71 C22.77201962 72.7862684 22.77201962 72.7862684 23 75 C23.66 75.33 24.32 75.66 25 76 C24.01 76 23.02 76 22 76 C20.515 76.495 20.515 76.495 19 77 C19.33 74.36 19.66 71.72 20 69 C19.67128906 69.4846875 19.34257813 69.969375 19.00390625 70.46875 C11.99870949 80.34057199 3.55535336 87.5038428 -8.34765625 90.61328125 C-23.49365283 92.8216077 -35.63905758 90.16914977 -48 81 C-50.16534274 79.08915804 -52.06155713 77.14800427 -54 75 C-53.505 74.01 -53.505 74.01 -53 73 C-50.5 74.375 -50.5 74.375 -48 76 C-48 76.66 -48 77.32 -48 78 C-47.44699219 78.268125 -46.89398438 78.53625 -46.32421875 78.8125 C-44.69905189 79.64283735 -43.09853741 80.52242241 -41.51953125 81.4375 C-30.76301253 87.64616882 -20.67098188 89.81541884 -8.4375 86.8125 C3.20712051 83.30924552 12.11061167 76.71589889 18 66 C22.67913149 54.99134567 23.19064176 44.71480228 19.55859375 33.3828125 C19 31 19 31 20 28 C24.86807716 38.4533264 25.11937251 48.74837194 23 60 C26.25730335 48.23385621 24.96515461 34.61965553 19 24 C17.44773889 22.20987757 17.44773889 22.20987757 16 21 C15.67 21.66 15.34 22.32 15 23 C13.99421411 21.71283353 12.99553202 20.42011342 12 19.125 C11.443125 18.40570313 10.88625 17.68640625 10.3125 16.9453125 C9 15 9 15 9 13 C7.34482963 11.73972679 7.34482963 11.73972679 5.25 10.5625 C2.37272741 8.83817706 -0.36522337 7.08586484 -3 5 C-1.625 2.5 -1.625 2.5 0 0 Z " fill="#95BCE4" transform="translate(94,28)"/>
<path d="M0 0 C2.36328125 2.140625 2.36328125 2.140625 4 4 C2.02 3.67 0.04 3.34 -2 3 C-2.99 4.65 -3.98 6.3 -5 8 C-3.68 9.32 -2.36 10.64 -1 12 C-2.98 11.67 -4.96 11.34 -7 11 C-8.92423806 13.88635708 -8.99028456 15.30117868 -8.875 18.875 C-8.78398638 23.30984567 -9.9273945 25.69104023 -13 29 C-16.83654974 30.70513322 -19.06192345 31.18393658 -23.1875 30.375 C-26.34636333 28.83066682 -27.98996456 27.90338453 -30 25 C-30.95822804 21.93250171 -31.34353333 19.20261714 -31 16 C-29.35089553 12.87059703 -27.20384436 10.60192218 -24 9 C-18.561082 8.44435415 -14.47520673 8.53532382 -10 12 C-9.67 11.01 -9.34 10.02 -9 9 C-17.208157 5.77145825 -22.05089631 6.03281524 -30.16796875 9.37890625 C-32 10 -32 10 -35 10 C-35.33 7.03 -35.66 4.06 -36 1 C-36.94875 1.515625 -37.8975 2.03125 -38.875 2.5625 C-39.90625 3.036875 -40.9375 3.51125 -42 4 C-42.66 3.67 -43.32 3.34 -44 3 C-42.08588443 2.01585567 -40.1686033 1.03786651 -38.25 0.0625 C-37.18265625 -0.48277344 -36.1153125 -1.02804688 -35.015625 -1.58984375 C-24.37505947 -6.56554862 -10.41073454 -4.86735641 0 0 Z " fill="#C2A14F" transform="translate(95,36)"/>
<path d="M0 0 C0.66 0.33 1.32 0.66 2 1 C1.34 2.65 0.68 4.3 0 6 C2.475 6.495 2.475 6.495 5 7 C4.34 8.32 3.68 9.64 3 11 C2.42668945 11.00410889 1.85337891 11.00821777 1.26269531 11.01245117 C-14.51009643 11.21016467 -27.04089036 12.68442989 -39 24 C-39.66 24.99 -40.32 25.98 -41 27 C-40.01 26.34 -39.02 25.68 -38 25 C-39.30212691 27.71826493 -40.75623771 30.18917567 -42.4375 32.6875 C-47.26496457 40.40574719 -48.51218065 48.00057403 -49 57 C-48.21625 57.20625 -47.4325 57.4125 -46.625 57.625 C-41.70726245 59.49034873 -37.44157897 62.20865195 -33 65 C-33.99 65.495 -33.99 65.495 -35 66 C-37.28258633 64.92325298 -39.4356434 63.80453884 -41.625 62.5625 C-42.23601563 62.22412109 -42.84703125 61.88574219 -43.4765625 61.53710938 C-44.988353 60.69853808 -46.49470399 59.85017423 -48 59 C-47.37679879 65.43974581 -46.35991738 71.67572401 -45 78 C-47.37682369 75.86285601 -48.59931002 74.06221946 -49.6875 71.0625 C-50.06455078 70.05896484 -50.06455078 70.05896484 -50.44921875 69.03515625 C-51 67 -51 67 -51 63 C-52.65 63 -54.3 63 -56 63 C-56.495 63.99 -56.495 63.99 -57 65 C-57.99 64.67 -58.98 64.34 -60 64 C-59.67 63.34 -59.34 62.68 -59 62 C-60.485 62.495 -60.485 62.495 -62 63 C-61.67 62.01 -61.34 61.02 -61 60 C-59.68 60.33 -58.36 60.66 -57 61 C-57 60.34 -57 59.68 -57 59 C-58.32 58.67 -59.64 58.34 -61 58 C-58 56 -58 56 -56 55 C-56 54.34 -56 53.68 -56 53 C-57.98 52.67 -59.96 52.34 -62 52 C-61.67 51.01 -61.34 50.02 -61 49 C-58.525 48.505 -58.525 48.505 -56 48 C-55.34 45.36 -54.68 42.72 -54 40 C-55.98 39.67 -57.96 39.34 -60 39 C-59.67 37.68 -59.34 36.36 -59 35 C-58.34 35.99 -57.68 36.98 -57 38 C-54.94074861 38.72382467 -54.94074861 38.72382467 -53 39 C-52.67 37.68 -52.34 36.36 -52 35 C-52.66 35.66 -53.32 36.32 -54 37 C-54.99 37 -55.98 37 -57 37 C-56.67 35.35 -56.34 33.7 -56 32 C-54 31.33333333 -52 30.66666667 -50 30 C-49.67 29.34 -49.34 28.68 -49 28 C-49.66 27.67 -50.32 27.34 -51 27 C-50.01 26.67 -49.02 26.34 -48 26 C-48.66 25.67 -49.32 25.34 -50 25 C-50 24.34 -50 23.68 -50 23 C-50.66 22.67 -51.32 22.34 -52 22 C-51.34 22 -50.68 22 -50 22 C-49.67 21.01 -49.34 20.02 -49 19 C-48.34 19.66 -47.68 20.32 -47 21 C-47 20.34 -47 19.68 -47 19 C-46.01 19 -45.02 19 -44 19 C-44.33 18.34 -44.66 17.68 -45 17 C-44.21625 17.185625 -43.4325 17.37125 -42.625 17.5625 C-40.02910225 18.25962266 -40.02910225 18.25962266 -38 17 C-38 17.66 -38 18.32 -38 19 C-37.01 19 -36.02 19 -35 19 C-35 18.34 -35 17.68 -35 17 C-35.66 16.67 -36.32 16.34 -37 16 C-36.01 15.34 -35.02 14.68 -34 14 C-34.33 12.35 -34.66 10.7 -35 9 C-36.32 9.33 -37.64 9.66 -39 10 C-38.67 9.34 -38.34 8.68 -38 8 C-35.9375 7.375 -35.9375 7.375 -34 7 C-33.814375 7.61875 -33.62875 8.2375 -33.4375 8.875 C-31.28562767 12.05602866 -28.62466237 12.19451947 -25 13 C-24.67 12.01 -24.34 11.02 -24 10 C-23.01 10 -22.02 10 -21 10 C-21 9.34 -21 8.68 -21 8 C-19.68 8 -18.36 8 -17 8 C-17 7.34 -17 6.68 -17 6 C-13.125 5 -13.125 5 -12 5 C-12 4.01 -12 3.02 -12 2 C-11.01 2.33 -10.02 2.66 -9 3 C-8.67 2.34 -8.34 1.68 -8 1 C-8 2.65 -8 4.3 -8 6 C-6.68 6 -5.36 6 -4 6 C-3.67 4.35 -3.34 2.7 -3 1 C-2.01 0.67 -1.02 0.34 0 0 Z " fill="#98C1E8" transform="translate(83,20)"/>
<path d="M0 0 C0.495 0.99 0.495 0.99 1 2 C-0.39025391 2.54914062 -0.39025391 2.54914062 -1.80859375 3.109375 C-5.68474821 4.86178067 -8.66873613 6.34993125 -12 9 C-13.41848931 13.09729106 -13.42948739 16.71216689 -13 21 C-11.35 21 -9.7 21 -8 21 C-8.495 16.05 -8.495 16.05 -9 11 C-5.65747276 10.92572162 -3.1964086 10.93453047 0 12 C-0.33 18.27 -0.66 24.54 -1 31 C-11.89 31 -22.78 31 -34 31 C-33.505 26.545 -33.505 26.545 -33 22 C-29.37 21.67 -25.74 21.34 -22 21 C-22.33 19.35 -22.66 17.7 -23 16 C-24.32 16.33 -25.64 16.66 -27 17 C-27 17.99 -27 18.98 -27 20 C-28.98 20 -30.96 20 -33 20 C-33.33 17.36 -33.66 14.72 -34 12 C-31.525 12.495 -31.525 12.495 -29 13 C-28.67 12.34 -28.34 11.68 -28 11 C-27.34 11.33 -26.68 11.66 -26 12 C-26 12.99 -26 13.98 -26 15 C-25.01 14.34 -24.02 13.68 -23 13 C-22.63702064 11.02252878 -22.63702064 11.02252878 -22.8125 8.875 C-22.874375 7.59625 -22.93625 6.3175 -23 5 C-21.63875 5.0309375 -21.63875 5.0309375 -20.25 5.0625 C-17.55264733 5.01062783 -15.5552 4.73005714 -13 4 C-12.34 4 -11.68 4 -11 4 C-11 4.66 -11 5.32 -11 6 C-7.37 4.02 -3.74 2.04 0 0 Z " fill="#B59B5E" transform="translate(112,61)"/>
<path d="M0 0 C0.71484375 1.609375 0.71484375 1.609375 1 4 C-0.43359375 7.015625 -0.43359375 7.015625 -2.4375 10.25 C-3.09621094 11.32765625 -3.75492188 12.4053125 -4.43359375 13.515625 C-4.95050781 14.33546875 -5.46742188 15.1553125 -6 16 C-10.571279 15.45144652 -14.67435795 14.58255197 -19 13 C-19.2475 13.5775 -19.495 14.155 -19.75 14.75 C-21.16683317 17.3002997 -22.87627537 19.01785701 -25 21 C-24.484375 22.051875 -23.96875 23.10375 -23.4375 24.1875 C-22.28488044 26.53884391 -21.99525775 27.89008138 -22.109375 30.53515625 C-23.30136068 33.8340289 -24.78092713 34.56332695 -27.8125 36.25 C-28.68519531 36.75015625 -29.55789062 37.2503125 -30.45703125 37.765625 C-32.67325069 38.84139358 -34.59471087 39.5290343 -37 40 C-37.35191406 39.48308594 -37.70382813 38.96617187 -38.06640625 38.43359375 C-39.59962887 36.38796252 -41.04204255 34.64812682 -43 33 C-46.54578685 32.83974601 -46.54578685 32.83974601 -50 34 C-51.134375 34.185625 -52.26875 34.37125 -53.4375 34.5625 C-54.283125 34.706875 -55.12875 34.85125 -56 35 C-55.67 33.35 -55.34 31.7 -55 30 C-54.03320312 29.70867187 -53.06640625 29.41734375 -52.0703125 29.1171875 C-41.25565721 25.75405104 -32.67055052 21.36996794 -24 14 C-23.34 14 -22.68 14 -22 14 C-21.731875 13.38125 -21.46375 12.7625 -21.1875 12.125 C-20 10 -20 10 -17 8 C-16.113125 8.474375 -15.22625 8.94875 -14.3125 9.4375 C-11.42957244 10.79737149 -9.12389377 11.54060386 -6 12 C-5.7525 11.319375 -5.505 10.63875 -5.25 9.9375 C-3.75802092 6.43134917 -1.93164489 3.28379632 0 0 Z " fill="#3E4F67" transform="translate(141,105)"/>
<path d="M0 0 C-0.33 1.32 -0.66 2.64 -1 4 C-1.639375 3.505 -2.27875 3.01 -2.9375 2.5 C-7.05751198 0.48203495 -10.48918225 0.28088413 -15 1 C-18.10847573 2.36942449 -18.10847573 2.36942449 -20 5 C-21.26515462 9.63890027 -21.3496784 12.77057888 -19 17 C-16.99007262 19.46672906 -14.88881899 20.70501218 -12 22 C-13.47198655 25.92288042 -15.26488568 29.53266735 -17.3125 33.1875 C-17.88613281 34.23292969 -18.45976563 35.27835938 -19.05078125 36.35546875 C-21 39 -21 39 -26 41 C-26.33 28.46 -26.66 15.92 -27 3 C-27.66 2.67 -28.32 2.34 -29 2 C-28.443125 1.81824219 -27.88625 1.63648438 -27.3125 1.44921875 C-26.549375 1.19785156 -25.78625 0.94648437 -25 0.6875 C-24.18015625 0.41808594 -23.3603125 0.14867187 -22.515625 -0.12890625 C-20.21847076 -0.92434941 -17.99503759 -1.82028023 -15.75 -2.75 C-9.54524212 -4.81825263 -5.68677793 -2.56462534 0 0 Z " fill="#EEEEEE" transform="translate(86,45)"/>
<path d="M0 0 C4.91427279 1.48917357 8.40319126 4.44186662 12 8 C12.33 8.66 12.66 9.32 13 10 C13.60328125 9.855625 14.2065625 9.71125 14.828125 9.5625 C15.62734375 9.376875 16.4265625 9.19125 17.25 9 C18.43335938 8.7215625 18.43335938 8.7215625 19.640625 8.4375 C22 8 22 8 26 8 C27.921875 10.4140625 27.921875 10.4140625 29.75 13.625 C30.36359375 14.66914062 30.9771875 15.71328125 31.609375 16.7890625 C33.097334 20.22474311 33.5087142 22.30403558 33 26 C31.2897647 28.31258233 29.42876595 29.34843915 27 31 C26.34 31 25.68 31 25 31 C24.67 31.99 24.34 32.98 24 34 C23.731875 33.26136719 23.46375 32.52273437 23.1875 31.76171875 C18.91114207 20.69101583 12.64882405 12.05763861 4 4 C2.66666667 2.66666667 1.33333333 1.33333333 0 0 Z " fill="#94BAE2" transform="translate(109,24)"/>
<path d="M0 0 C0.66 0 1.32 0 2 0 C1.979375 1.134375 1.95875 2.26875 1.9375 3.4375 C1.9293241 8.00782755 2.41308664 12.47238262 3 17 C3.66 17 4.32 17 5 17 C5 15.35 5 13.7 5 12 C8.63 12 12.26 12 16 12 C16 13.98 16 15.96 16 18 C14.35 17.67 12.7 17.34 11 17 C10.34 18.32 9.68 19.64 9 21 C0.75 21 -7.5 21 -16 21 C-15.505 16.545 -15.505 16.545 -15 12 C-13.02145742 11.80602524 -11.0421352 11.61998679 -9.0625 11.4375 C-7.40927734 11.28087891 -7.40927734 11.28087891 -5.72265625 11.12109375 C-4.82417969 11.08113281 -3.92570312 11.04117188 -3 11 C-2.67 11.33 -2.34 11.66 -2 12 C-1.93941406 11.21753906 -1.87882812 10.43507813 -1.81640625 9.62890625 C-1.73261719 8.61699219 -1.64882812 7.60507813 -1.5625 6.5625 C-1.48128906 5.55316406 -1.40007812 4.54382813 -1.31640625 3.50390625 C-1 1 -1 1 0 0 Z " fill="#A08446" transform="translate(94,71)"/>
<path d="M0 0 C0.99 0 1.98 0 3 0 C3 0.66 3 1.32 3 2 C3.61875 2.144375 4.2375 2.28875 4.875 2.4375 C7 3 7 3 9 4 C9.33 3.01 9.66 2.02 10 1 C13.875 1.875 13.875 1.875 15 3 C15.28268575 5.68551458 15.39823312 7.36751211 13.9375 9.6875 C11.15689129 11.57113816 8.2365934 12.2061186 5 13 C5.66 14.65 6.32 16.3 7 18 C6 19 6 19 3.93359375 19.09765625 C3.10988281 19.08605469 2.28617188 19.07445313 1.4375 19.0625 C0.61121094 19.05347656 -0.21507813 19.04445313 -1.06640625 19.03515625 C-2.02353516 19.01775391 -2.02353516 19.01775391 -3 19 C-3 17.68 -3 16.36 -3 15 C-2.34 15 -1.68 15 -1 15 C-1 14.34 -1 13.68 -1 13 C-2.051875 12.79375 -3.10375 12.5875 -4.1875 12.375 C-8.64407236 11.14310195 -10.35843582 8.68218037 -13 5 C-10.83125748 5.50603992 -9.00032373 5.99983813 -7 7 C-7 6.34 -7 5.68 -7 5 C-4.69 3.68 -2.38 2.36 0 1 C0 0.67 0 0.34 0 0 Z " fill="#DBB22E" transform="translate(73,94)"/>
<path d="M0 0 C6.3460995 7.2114767 5.56510843 16.9941451 5 26 C3.87103921 34.61425548 1.54978141 41.28740725 -4 48 C-4.47953125 48.61359375 -4.9590625 49.2271875 -5.453125 49.859375 C-11.26104631 56.48861852 -21.24372015 61.90043653 -30 63 C-45.28066194 63.85348488 -57.11735492 61.72110105 -69.02734375 51.2109375 C-70.39667847 49.85126867 -71.70716342 48.4326027 -73 47 C-72.67 46.34 -72.34 45.68 -72 45 C-69.5 46.375 -69.5 46.375 -67 48 C-67 48.66 -67 49.32 -67 50 C-66.44699219 50.268125 -65.89398438 50.53625 -65.32421875 50.8125 C-63.69905189 51.64283735 -62.09853741 52.52242241 -60.51953125 53.4375 C-49.76301253 59.64616882 -39.67098188 61.81541884 -27.4375 58.8125 C-15.79287949 55.30924552 -6.88938833 48.71589889 -1 38 C3.67328809 27.00509352 4.1482757 16.73189603 0.65625 5.3828125 C0 3 0 3 0 0 Z " fill="#CDD2D7" transform="translate(113,56)"/>
<path d="M0 0 C3.125 0.1875 3.125 0.1875 6.125 2.1875 C8.75031524 2.35463569 8.75031524 2.35463569 11.125 2.1875 C11.44156962 6.77775955 11.51319237 9.34900449 9.5625 13.5625 C6.51098139 16.84875081 4.54630533 17.57766478 0.125 18.1875 C-4.3363772 17.31272016 -7.09953063 15.81695994 -9.875 12.1875 C-9.875 10.8675 -9.875 9.5475 -9.875 8.1875 C-7.235 8.1875 -4.595 8.1875 -1.875 8.1875 C-1.875 7.1975 -1.875 6.2075 -1.875 5.1875 C-3.195 5.1875 -4.515 5.1875 -5.875 5.1875 C-3.47456553 0.2266021 -3.47456553 0.2266021 0 0 Z " fill="#C0AE88" transform="translate(74.875,48.8125)"/>
<path d="M0 0 C5.28 0 10.56 0 16 0 C17.49035891 5.21625619 18.24741966 7.92789703 18 13 C18.99 13.33 19.98 13.66 21 14 C17.70798357 13.86145912 14.41649291 13.71292976 11.125 13.5625 C10.18785156 13.52318359 9.25070313 13.48386719 8.28515625 13.44335938 C7.38925781 13.40146484 6.49335937 13.35957031 5.5703125 13.31640625 C4.74289551 13.27974854 3.91547852 13.24309082 3.06298828 13.20532227 C1 13 1 13 -1 12 C-1.02712066 10.56260487 -1.04645067 9.12506137 -1.0625 7.6875 C-1.07410156 6.88699219 -1.08570312 6.08648437 -1.09765625 5.26171875 C-1 3 -1 3 0 0 Z " fill="#9ABFE2" transform="translate(67,1)"/>
<path d="M0 0 C0.66 0 1.32 0 2 0 C2.78375 0.804375 3.5675 1.60875 4.375 2.4375 C7.25481484 5.28741347 7.25481484 5.28741347 11 6 C11.66 5.67 12.32 5.34 13 5 C13.66 5.66 14.32 6.32 15 7 C15.33 7 15.66 7 16 7 C16.99 8.485 16.99 8.485 18 10 C18.33 10 18.66 10 19 10 C21 13 21 13 20.625 15.1875 C20.315625 16.0846875 20.315625 16.0846875 20 17 C21.65 16.67 23.3 16.34 25 16 C24.67 17.32 24.34 18.64 24 20 C25.32 20.33 26.64 20.66 28 21 C27.67 21.66 27.34 22.32 27 23 C26.34 23 25.68 23 25 23 C25 23.66 25 24.32 25 25 C24.34 25 23.68 25 23 25 C22.67 25.99 22.34 26.98 22 28 C21.38125 27.21625 20.7625 26.4325 20.125 25.625 C18.10141339 23.03162353 18.10141339 23.03162353 16 21 C15.67 21.66 15.34 22.32 15 23 C13.99421411 21.71283353 12.99553202 20.42011342 12 19.125 C11.443125 18.40570313 10.88625 17.68640625 10.3125 16.9453125 C9 15 9 15 9 13 C7.34482963 11.73972679 7.34482963 11.73972679 5.25 10.5625 C2.37272741 8.83817706 -0.36522337 7.08586484 -3 5 C-1.625 2.5 -1.625 2.5 0 0 Z " fill="#92BAE1" transform="translate(94,28)"/>
<path d="M0 0 C0.33 0.66 0.66 1.32 1 2 C0.07421875 4.171875 0.07421875 4.171875 -1.3125 6.75 C-4.93330139 13.51436248 -6.31649664 19.29095902 -6.625 26.875 C-6.68300781 28.050625 -6.68300781 28.050625 -6.7421875 29.25 C-6.83566622 31.16631367 -6.91888495 33.08312319 -7 35 C-8.32 35 -9.64 35 -11 35 C-11.33 35.66 -11.66 36.32 -12 37 C-12.99 36.67 -13.98 36.34 -15 36 C-14.67 35.34 -14.34 34.68 -14 34 C-15.485 34.495 -15.485 34.495 -17 35 C-16.67 34.01 -16.34 33.02 -16 32 C-14.68 32.33 -13.36 32.66 -12 33 C-12 32.34 -12 31.68 -12 31 C-13.32 30.67 -14.64 30.34 -16 30 C-13 28 -13 28 -11 27 C-11 26.34 -11 25.68 -11 25 C-12.98 24.67 -14.96 24.34 -17 24 C-16.505 22.515 -16.505 22.515 -16 21 C-14.35 20.67 -12.7 20.34 -11 20 C-10.34 17.36 -9.68 14.72 -9 12 C-11.97 11.505 -11.97 11.505 -15 11 C-14.67 9.68 -14.34 8.36 -14 7 C-13.01 8.485 -13.01 8.485 -12 10 C-9.94074861 10.72382467 -9.94074861 10.72382467 -8 11 C-7.67 9.68 -7.34 8.36 -7 7 C-7.66 7.66 -8.32 8.32 -9 9 C-9.99 9 -10.98 9 -12 9 C-11.67 7.35 -11.34 5.7 -11 4 C-8.98124033 3.32708011 -6.96034995 2.66052243 -4.9375 2 C-2.10977948 1.11118691 -2.10977948 1.11118691 0 0 Z " fill="#94BCE5" transform="translate(38,48)"/>
<path d="M0 0 C0.33 0.66 0.66 1.32 1 2 C2.6635479 2.67441131 4.33066942 3.3400321 6 4 C7.36365283 4.95824253 8.70794169 5.94721175 10 7 C8.23570801 11.97209562 5.6060834 16.43438061 3 21 C1.741875 20.87625 0.48375 20.7525 -0.8125 20.625 C-1.52019531 20.55539063 -2.22789062 20.48578125 -2.95703125 20.4140625 C-5 20 -5 20 -8 18 C-7.26733512 13.91358743 -5.31342025 10.40525846 -3.4375 6.75 C-3.10814453 6.1003125 -2.77878906 5.450625 -2.43945312 4.78125 C-1.62992435 3.18565706 -0.81544958 1.59257517 0 0 Z " fill="#7DA6D5" transform="translate(132,96)"/>
<path d="M0 0 C2.8125 0.1875 2.8125 0.1875 6 1 C8.15912713 3.50737344 9.02749299 4.98275934 8.9375 8.3125 C7.63182844 12.05542515 5.86358444 15.50686266 4 19 C0.05446014 19 -2.64918241 17.94557231 -5.875 15.6875 C-7 14 -7 14 -6.76171875 11.6953125 C-5.91826553 8.71078572 -4.71372868 6.71957067 -2.9375 4.1875 C-2.38964844 3.39730469 -1.84179688 2.60710938 -1.27734375 1.79296875 C-0.64505859 0.90544922 -0.64505859 0.90544922 0 0 Z " fill="#95BCE3" transform="translate(16,32)"/>
<path d="M0 0 C0.33 5.94 0.66 11.88 1 18 C-7.49609375 17.4140625 -7.49609375 17.4140625 -10 17 C-11.50156874 13.99686252 -11.09281204 11.20932478 -11.0625 7.875 C-11.05347656 6.59367187 -11.04445313 5.31234375 -11.03515625 3.9921875 C-11.02355469 3.00476563 -11.01195312 2.01734375 -11 1 C-9 0 -9 0 0 0 Z " fill="#8AB3DE" transform="translate(13,66)"/>
<path d="M0 0 C3 1 3 1 4.0625 2.77734375 C4.371875 3.49019531 4.68125 4.20304687 5 4.9375 C6.42373705 8.20616298 6.87437458 8.91624972 10 11 C10.6875 13.625 10.6875 13.625 11 16 C8.0878091 17.69313425 5.8357693 18.95923077 2.4375 19.125 C-2.166911 16.99988723 -4.30733291 12.55025492 -6.3125 8.0625 C-6.539375 7.381875 -6.76625 6.70125 -7 6 C-5.90716423 4.96704564 -4.80029421 3.94892165 -3.6875 2.9375 C-3.07261719 2.36902344 -2.45773438 1.80054687 -1.82421875 1.21484375 C-0.92123047 0.61349609 -0.92123047 0.61349609 0 0 Z " fill="#82ACDB" transform="translate(15,98)"/>
<path d="M0 0 C7.71484375 -0.09765625 7.71484375 -0.09765625 10 0 C11 1 11 1 11.09765625 4.37890625 C11.09098369 5.77347077 11.07902532 7.16801743 11.0625 8.5625 C11.05798828 9.27341797 11.05347656 9.98433594 11.04882812 10.71679688 C11.03700864 12.47790013 11.01907263 14.23896036 11 16 C6.9402698 17.51059728 4.45389333 18 0 18 C0 12.06 0 6.12 0 0 Z " fill="#8CB4E0" transform="translate(137,66)"/>
<path d="M0 0 C0.66 0 1.32 0 2 0 C5.02716226 6.2964975 5.02716226 6.2964975 4.921875 9.0234375 C3.5408274 11.98449718 1.52161006 12.83594685 -1.3125 14.375 C-2.27800781 14.91898438 -3.24351563 15.46296875 -4.23828125 16.0234375 C-7 17 -7 17 -9.10546875 16.5390625 C-11.72438809 14.41152802 -13.25681152 11.86380964 -15 9 C-14.08476563 8.51789063 -13.16953125 8.03578125 -12.2265625 7.5390625 C-11.0259405 6.90123206 -9.8254252 6.26320074 -8.625 5.625 C-8.02171875 5.30789062 -7.4184375 4.99078125 -6.796875 4.6640625 C-4.21449618 3.2867938 -2.08169419 2.08169419 0 0 Z " fill="#7FAADC" transform="translate(113,124)"/>
<path d="M0 0 C2.29395893 1.28773152 4.58516784 2.57996772 6.875 3.875 C7.52597656 4.23980469 8.17695312 4.60460937 8.84765625 4.98046875 C11.50393354 6.48660536 13.83019001 7.83019001 16 10 C14.02 12.31 12.04 14.62 10 17 C4.73829306 15.58832253 1.27828642 13.25149768 -3 10 C-2.67 7.36 -2.34 4.72 -2 2 C-1.34 2 -0.68 2 0 2 C0 1.34 0 0.68 0 0 Z " fill="#7FAADD" transform="translate(36,124)"/>
<path d="M0 0 C-0.55144911 4.08072342 -0.91330796 4.91330796 -4 8 C-7.63 5.36 -11.26 2.72 -15 0 C-18.19645437 1.59822718 -21.19844558 3.27800654 -24.25 5.125 C-25.14203125 5.66382813 -26.0340625 6.20265625 -26.953125 6.7578125 C-27.62859375 7.16773438 -28.3040625 7.57765625 -29 8 C-29 5.03 -29 2.06 -29 -1 C-18.61668812 -4.07653685 -10.27588072 -3.28203034 0 0 Z " fill="#FBFBF9" transform="translate(91,36)"/>
<path d="M0 0 C5.94 0 11.88 0 18 0 C18 7 18 7 17 10 C11.72 10 6.44 10 1 10 C0.67 6.7 0.34 3.4 0 0 Z " fill="#7DA9DD" transform="translate(66,137)"/>
<path d="M0 0 C0.33 0 0.66 0 1 0 C1 3.96 1 7.92 1 12 C1.66 12 2.32 12 3 12 C4.0625 13.8125 4.0625 13.8125 5 16 C4.67 16.99 4.34 17.98 4 19 C4.33 19.33 4.66 19.66 5 20 C5.66 20.66 6.32 21.32 7 22 C5.02 22 3.04 22 1 22 C0.67 23.32 0.34 24.64 0 26 C0.99 26.33 1.98 26.66 3 27 C1.64567309 28.35432691 0.2697269 29.68731586 -1.125 31 C-3.22798038 32.7862684 -3.22798038 32.7862684 -3 35 C-2.34 35.33 -1.68 35.66 -1 36 C-1.99 36 -2.98 36 -4 36 C-5.485 36.495 -5.485 36.495 -7 37 C-6.65044074 31.75661103 -5.87934982 27.37473872 -4.0625 22.4375 C-1.45565416 15.10989333 -0.74220047 7.69544695 0 0 Z " fill="#89B2DF" transform="translate(120,68)"/>
<path d="M0 0 C-0.969375 0.268125 -1.93875 0.53625 -2.9375 0.8125 C-4.4534375 1.4003125 -4.4534375 1.4003125 -6 2 C-7.09658936 5.28976808 -6.79953138 6.71303767 -6 10 C-9.75 12 -9.75 12 -12 12 C-12.99 12.185625 -13.98 12.37125 -15 12.5625 C-18 13 -18 13 -20 12 C-20.625 8.9375 -20.625 8.9375 -21 6 C-20.01 5.34 -19.02 4.68 -18 4 C-18 3.34 -18 2.68 -18 2 C-15.56421213 1.46969932 -13.12694025 0.95047688 -10.6875 0.4375 C-9.65206055 0.21030273 -9.65206055 0.21030273 -8.59570312 -0.02148438 C-5.24455934 -0.71761569 -3.30465928 -1.10155309 0 0 Z " fill="#6E91B9" transform="translate(91,118)"/>
<path d="M0 0 C0.33 0.66 0.66 1.32 1 2 C0.34644364 3.33980831 -0.32230655 4.67223729 -1 6 C-1.44774526 8.21368748 -1.44774526 8.21368748 -1.6328125 10.546875 C-1.71660156 11.39121094 -1.80039062 12.23554687 -1.88671875 13.10546875 C-1.96535156 13.97816406 -2.04398438 14.85085937 -2.125 15.75 C-2.21136719 16.63816406 -2.29773437 17.52632812 -2.38671875 18.44140625 C-2.59823066 20.62702936 -2.80240227 22.81308238 -3 25 C-2.12085938 25.26554687 -1.24171875 25.53109375 -0.3359375 25.8046875 C2.87919964 26.95671556 5.48249463 28.32695612 8.375 30.125 C9.24898437 30.66382812 10.12296875 31.20265625 11.0234375 31.7578125 C11.67570312 32.16773438 12.32796875 32.57765625 13 33 C12.01 33.495 12.01 33.495 11 34 C8.71741367 32.92325298 6.5643566 31.80453884 4.375 30.5625 C3.76398437 30.22412109 3.15296875 29.88574219 2.5234375 29.53710938 C1.011647 28.69853808 -0.49470399 27.85017423 -2 27 C-1.37679879 33.43974581 -0.35991738 39.67572401 1 46 C-4.40184071 41.32562781 -5.86441901 33.75137765 -6.4296875 26.88671875 C-6.87216455 17.29826286 -5.39641661 9.64868842 -1 1 C-0.67 0.67 -0.34 0.34 0 0 Z " fill="#CED3D7" transform="translate(37,52)"/>
<path d="M0 0 C0.68707555 2.49064888 1 4.37886292 1 7 C2.32 7.66 3.64 8.32 5 9 C4.67 10.32 4.34 11.64 4 13 C3.34 13 2.68 13 2 13 C1.67 14.32 1.34 15.64 1 17 C-0.9375 16.6875 -0.9375 16.6875 -3 16 C-4.12647116 12.62058652 -3.80736269 11.39092328 -3 8 C-2.855625 7.13375 -2.71125 6.2675 -2.5625 5.375 C-2 3 -2 3 0 0 Z M-10 14 C-8.02 14.66 -6.04 15.32 -4 16 C-4 16.99 -4 17.98 -4 19 C-4.66 18.67 -5.32 18.34 -6 18 C-6 18.66 -6 19.32 -6 20 C-5.34 20.33 -4.68 20.66 -4 21 C-4.99 21 -5.98 21 -7 21 C-7.66 20.34 -8.32 19.68 -9 19 C-9 19.66 -9 20.32 -9 21 C-8.34 21.66 -7.68 22.32 -7 23 C-7.99 23 -8.98 23 -10 23 C-10.33 23.99 -10.66 24.98 -11 26 C-11.33 26 -11.66 26 -12 26 C-12.24954005 24.56589632 -12.47392642 23.12739928 -12.6875 21.6875 C-12.81511719 20.88699219 -12.94273438 20.08648437 -13.07421875 19.26171875 C-13 17 -13 17 -11.51953125 15.20703125 C-11.01808594 14.80871094 -10.51664062 14.41039063 -10 14 Z " fill="#6C8AAC" transform="translate(114,96)"/>
<path d="M0 0 C3.0625 2.375 3.0625 2.375 5 5 C5 5.66 5 6.32 5 7 C0.25 6.125 0.25 6.125 -2 5 C-4.95788569 4.5832448 -4.95788569 4.5832448 -8 5 C-9.91256712 6.88077873 -9.91256712 6.88077873 -11 9 C-9.68 9 -8.36 9 -7 9 C-7 9.99 -7 10.98 -7 12 C-9.97 12 -12.94 12 -16 12 C-15.82642417 7.57381642 -15.40909257 5.48068377 -12.5 2.0625 C-8.63280788 -0.7423791 -4.59410781 -1.08096654 0 0 Z " fill="#D4AC44" transform="translate(80,45)"/>
<path d="M0 0 C6.3460995 7.2114767 5.56510843 16.9941451 5 26 C3.41527056 38.09188516 -1.56007072 47.21960166 -11 55 C-13.40967345 56.54084697 -14.39744641 57.1004256 -17.25 56.625 C-17.8275 56.41875 -18.405 56.2125 -19 56 C-18.28714844 55.53851563 -17.57429688 55.07703125 -16.83984375 54.6015625 C-5.81061917 47.09040821 -0.26416813 38.88000637 2.6875 26 C3.46308546 18.55437959 2.87018312 12.57809515 0.65625 5.3828125 C0 3 0 3 0 0 Z " fill="#BEBEBE" transform="translate(113,56)"/>
<path d="M0 0 C7.26 0.33 14.52 0.66 22 1 C22 11.125 22 11.125 20 17 C18.06257659 17.02703381 16.12504521 17.04641125 14.1875 17.0625 C13.10855469 17.07410156 12.02960938 17.08570313 10.91796875 17.09765625 C8 17 8 17 5 16 C5 14.68 5 13.36 5 12 C9.95 12 14.9 12 20 12 C20.33 8.7 20.66 5.4 21 2 C19.68 2.33 18.36 2.66 17 3 C15.02330135 3.11691615 13.0426139 3.17501504 11.0625 3.1875 C10.04285156 3.20167969 9.02320312 3.21585938 7.97265625 3.23046875 C4.92840333 2.99444914 2.75262357 2.28252995 0 1 C0 0.67 0 0.34 0 0 Z " fill="#47596F" transform="translate(63,135)"/>
<path d="M0 0 C2.64 0 5.28 0 8 0 C7.75148178 4.22480975 7.39147413 6.49978306 4.75 9.875 C1.88640017 12.08778168 0.58188636 12.91263692 -3 13 C-7.46058755 11.99864361 -10.10727529 10.56027657 -13 7 C-13 6.34 -13 5.68 -13 5 C-10.625 4.875 -10.625 4.875 -8 5 C-7.34 5.66 -6.68 6.32 -6 7 C-2.54230809 7.58342353 -2.54230809 7.58342353 1 7 C3.00864359 4.6273026 3.00864359 4.6273026 4 2 C2.68 2 1.36 2 0 2 C0 1.34 0 0.68 0 0 Z " fill="#BF9C3E" transform="translate(78,54)"/>
<path d="M0 0 C0.66 0 1.32 0 2 0 C2.78375 0.804375 3.5675 1.60875 4.375 2.4375 C7.25481484 5.28741347 7.25481484 5.28741347 11 6 C11.66 5.67 12.32 5.34 13 5 C13.66 5.66 14.32 6.32 15 7 C15.33 7 15.66 7 16 7 C16.99 8.485 16.99 8.485 18 10 C18.33 10 18.66 10 19 10 C21 13 21 13 20.625 15.1875 C20.315625 16.0846875 20.315625 16.0846875 20 17 C21.65 16.67 23.3 16.34 25 16 C25 16.99 25 17.98 25 19 C22.4375 19.5 22.4375 19.5 19 19 C16.28354627 16.62513626 14.02568695 13.98459202 12 11 C12 10.34 12 9.68 12 9 C11.12988281 9.05220703 11.12988281 9.05220703 10.2421875 9.10546875 C4.990866 9.28744524 1.60488781 8.83377711 -3 6 C-2.01 4.02 -1.02 2.04 0 0 Z " fill="#9DC4E7" transform="translate(94,28)"/>
<path d="M0 0 C0.66 0 1.32 0 2 0 C1.67 6.6 1.34 13.2 1 20 C-0.32 20 -1.64 20 -3 20 C-3.33 20.66 -3.66 21.32 -4 22 C-4.99 21.67 -5.98 21.34 -7 21 C-6.67 20.34 -6.34 19.68 -6 19 C-6.99 19.33 -7.98 19.66 -9 20 C-8.505 18.515 -8.505 18.515 -8 17 C-6.68 17.33 -5.36 17.66 -4 18 C-4 17.34 -4 16.68 -4 16 C-5.32 15.67 -6.64 15.34 -8 15 C-5 13 -5 13 -3 12 C-3.66 10.35 -4.32 8.7 -5 7 C-4.0409375 6.6596875 -4.0409375 6.6596875 -3.0625 6.3125 C-0.72806339 5.14749104 -0.72806339 5.14749104 -0.25 2.375 C-0.1675 1.59125 -0.085 0.8075 0 0 Z " fill="#8DB6DF" transform="translate(30,63)"/>
<path d="M0 0 C2.36328125 2.140625 2.36328125 2.140625 4 4 C2.02 3.67 0.04 3.34 -2 3 C-2.99 4.65 -3.98 6.3 -5 8 C-5.66 7.67 -6.32 7.34 -7 7 C-6.01 4.69 -5.02 2.38 -4 0 C-13.96419983 -2.12165472 -22.93628874 -2.49092019 -33 -1 C-33 1.97 -33 4.94 -33 8 C-33.99 8.495 -33.99 8.495 -35 9 C-35.33 6.36 -35.66 3.72 -36 1 C-36.94875 1.515625 -37.8975 2.03125 -38.875 2.5625 C-39.90625 3.036875 -40.9375 3.51125 -42 4 C-42.66 3.67 -43.32 3.34 -44 3 C-42.08588443 2.01585567 -40.1686033 1.03786651 -38.25 0.0625 C-37.18265625 -0.48277344 -36.1153125 -1.02804688 -35.015625 -1.58984375 C-24.37505947 -6.56554862 -10.41073454 -4.86735641 0 0 Z " fill="#BBBBBB" transform="translate(95,36)"/>
<path d="M0 0 C0.66 0.33 1.32 0.66 2 1 C1.34 2.65 0.68 4.3 0 6 C2.475 6.495 2.475 6.495 5 7 C4.34 8.32 3.68 9.64 3 11 C-2.28 11 -7.56 11 -13 11 C-13.66 9.02 -14.32 7.04 -15 5 C-12.525 5.495 -12.525 5.495 -10 6 C-10.99 5.01 -11.98 4.02 -13 3 C-12.34 2.67 -11.68 2.34 -11 2 C-10.34 2.33 -9.68 2.66 -9 3 C-8.67 2.34 -8.34 1.68 -8 1 C-8 2.65 -8 4.3 -8 6 C-6.68 6 -5.36 6 -4 6 C-3.67 4.35 -3.34 2.7 -3 1 C-2.01 0.67 -1.02 0.34 0 0 Z " fill="#A3C8EC" transform="translate(83,20)"/>
<path d="M0 0 C0 0.99 0 1.98 0 3 C-5.75 6 -5.75 6 -8 6 C-7.34 7.65 -6.68 9.3 -6 11 C-7 12 -7 12 -9.06640625 12.09765625 C-9.89011719 12.08605469 -10.71382812 12.07445313 -11.5625 12.0625 C-12.38878906 12.05347656 -13.21507813 12.04445313 -14.06640625 12.03515625 C-14.70449219 12.02355469 -15.34257813 12.01195313 -16 12 C-16 10.68 -16 9.36 -16 8 C-15.34 8 -14.68 8 -14 8 C-14 7.34 -14 6.68 -14 6 C-16.31 5.34 -18.62 4.68 -21 4 C-20.67 3.01 -20.34 2.02 -20 1 C-19.67 1.66 -19.34 2.32 -19 3 C-16.77144426 3.0814222 -14.54202345 3.13938079 -12.3125 3.1875 C-11.07113281 3.22230469 -9.82976562 3.25710937 -8.55078125 3.29296875 C-4.81435679 2.9846829 -2.99370517 2.18088273 0 0 Z " fill="#AF8528" transform="translate(86,101)"/>
<path d="M0 0 C0.99 0.66 1.98 1.32 3 2 C3 1.34 3 0.68 3 0 C4.9375 0.5625 4.9375 0.5625 7 2 C7.75 5.625 7.75 5.625 8 9 C9.32 8.01 10.64 7.02 12 6 C9.25493635 11.66722817 5.91078129 17.06006574 2 22 C2.74250597 17.91621717 3.82923301 13.98060777 5 10 C3.02 10.99 3.02 10.99 1 12 C1 11.01 1 10.02 1 9 C0.34 8.67 -0.32 8.34 -1 8 C-0.01 7.67 0.98 7.34 2 7 C1.34 6.67 0.68 6.34 0 6 C0 5.34 0 4.68 0 4 C-0.66 3.67 -1.32 3.34 -2 3 C-1.34 3 -0.68 3 0 3 C0 2.01 0 1.02 0 0 Z " fill="#A6C0D9" transform="translate(33,39)"/>
<path d="M0 0 C0.57363281 0.28875 1.14726563 0.5775 1.73828125 0.875 C-1.73185473 2.03171199 -2.23731193 1.69046179 -5.51171875 0.4375 C-16.36026018 -2.98335394 -27.06632284 -1.93315573 -37.26171875 2.875 C-38.32519531 3.34486328 -38.32519531 3.34486328 -39.41015625 3.82421875 C-41.58843172 4.91594076 -41.58843172 4.91594076 -43.69921875 7.8125 C-46.58577326 11.26228466 -49.31359654 12.90093889 -53.26171875 14.875 C-49.70623561 6.60343559 -41.59164905 2.12475703 -33.64453125 -1.21484375 C-23.23627657 -5.19045579 -10.12915095 -4.42670027 0 0 Z " fill="#EBEDEE" transform="translate(93.26171875,34.125)"/>
<path d="M0 0 C3.19413541 1.59706771 3.99193774 4.82692575 5.48828125 7.96875 C6.86114833 10.21873574 6.86114833 10.21873574 9.49609375 10.828125 C12.56800637 11.03898952 14.31802939 10.48998367 17 9 C17.33 8.01 17.66 7.02 18 6 C20 8 20 8 20.125 10.625 C20.08375 11.40875 20.0425 12.1925 20 13 C16.46520576 14.55250268 13.18820185 15.9171022 9.3125 16.1875 C5.50627472 14.23295188 4.02221047 10.64707432 2 7 C1.34 6.01 0.68 5.02 0 4 C0 2.68 0 1.36 0 0 Z " fill="#39434C" transform="translate(8,105)"/>
<path d="M0 0 C3.875 1.75 3.875 1.75 5 4 C4.34 4 3.68 4 3 4 C3 4.66 3 5.32 3 6 C1.68 6 0.36 6 -1 6 C-1 6.66 -1 7.32 -1 8 C-1.99 8.33 -2.98 8.66 -4 9 C-4.33 9.66 -4.66 10.32 -5 11 C-8.375 10.75 -8.375 10.75 -12 10 C-13.4375 7.9375 -13.4375 7.9375 -14 6 C-12.68 5.34 -11.36 4.68 -10 4 C-10 4.66 -10 5.32 -10 6 C-10.66 6 -11.32 6 -12 6 C-11.67 6.66 -11.34 7.32 -11 8 C-10.01 7.67 -9.02 7.34 -8 7 C-8.33 5.68 -8.66 4.36 -9 3 C-8.34 3 -7.68 3 -7 3 C-6.67 3.66 -6.34 4.32 -6 5 C-5.67 3.68 -5.34 2.36 -5 1 C-4.0409375 1.2475 -4.0409375 1.2475 -3.0625 1.5 C-1.19173179 2.03926667 -1.19173179 2.03926667 0 2 C0 1.34 0 0.68 0 0 Z " fill="#7B90A4" transform="translate(63,22)"/>
<path d="M0 0 C0.33 0.66 0.66 1.32 1 2 C3.58605332 2.4683265 3.58605332 2.4683265 6.5625 2.625 C8.08037109 2.73714844 8.08037109 2.73714844 9.62890625 2.8515625 C10.80259766 2.92503906 10.80259766 2.92503906 12 3 C12.37125 4.216875 12.7425 5.43375 13.125 6.6875 C14.90501815 12.1139631 17.37596612 17.15821674 19.890625 22.27734375 C20.25671875 23.17582031 20.6228125 24.07429688 21 25 C20.67 25.66 20.34 26.32 20 27 C12.14806378 14.69931663 12.14806378 14.69931663 12 7 C10.82630859 6.90912109 10.82630859 6.90912109 9.62890625 6.81640625 C8.61699219 6.73261719 7.60507813 6.64882812 6.5625 6.5625 C5.04849609 6.44068359 5.04849609 6.44068359 3.50390625 6.31640625 C1 6 1 6 0 5 C-0.04063832 3.33382885 -0.042721 1.66611905 0 0 Z " fill="#46596F" transform="translate(2,81)"/>
<path d="M0 0 C0.71484375 1.609375 0.71484375 1.609375 1 4 C-0.43359375 7.015625 -0.43359375 7.015625 -2.4375 10.25 C-3.09621094 11.32765625 -3.75492188 12.4053125 -4.43359375 13.515625 C-4.95050781 14.33546875 -5.46742188 15.1553125 -6 16 C-10.3177458 15.49202991 -14.03302114 14.80317221 -18 13 C-18 12.01 -18 11.02 -18 10 C-13.97007218 10.55312735 -9.97977076 11.1558062 -6 12 C-5.7525 11.319375 -5.505 10.63875 -5.25 9.9375 C-3.75802092 6.43134917 -1.93164489 3.28379632 0 0 Z " fill="#2C353E" transform="translate(141,105)"/>
<path d="M0 0 C1.60463449 0.31008884 3.20869231 0.62316287 4.8125 0.9375 C5.70582031 1.11152344 6.59914063 1.28554687 7.51953125 1.46484375 C10 2 10 2 13 3 C13.10957031 3.77085937 13.21914062 4.54171875 13.33203125 5.3359375 C13.49058594 6.33882812 13.64914063 7.34171875 13.8125 8.375 C13.96332031 9.37273437 14.11414063 10.37046875 14.26953125 11.3984375 C14.78772298 14.3287364 14.78772298 14.3287364 18 16 C17.01 16 16.02 16 15 16 C15 16.66 15 17.32 15 18 C15.99 18.33 16.98 18.66 18 19 C16.68 19 15.36 19 14 19 C13.01 15.04 12.02 11.08 11 7 C7.37 6.01 3.74 5.02 0 4 C0 2.68 0 1.36 0 0 Z " fill="#39424A" transform="translate(53,133)"/>
<path d="M0 0 C0 0.66 0 1.32 0 2 C0.639375 2.12375 1.27875 2.2475 1.9375 2.375 C2.618125 2.58125 3.29875 2.7875 4 3 C4.33 3.66 4.66 4.32 5 5 C3.68 5 2.36 5 1 5 C2.65 5.33 4.3 5.66 6 6 C5.67 6.66 5.34 7.32 5 8 C0.71 8 -3.58 8 -8 8 C-8 6.68 -8 5.36 -8 4 C-3.88888889 0 -3.88888889 0 0 0 Z " fill="#B58F2A" transform="translate(76,94)"/>
<path d="M0 0 C0.99 0 1.98 0 3 0 C3.66 0.66 4.32 1.32 5 2 C5.66 2.33 6.32 2.66 7 3 C6.34 4.65 5.68 6.3 5 8 C6.65 8.33 8.3 8.66 10 9 C9.01 10.485 9.01 10.485 8 12 C5.36 11.67 2.72 11.34 0 11 C0.99 9.68 1.98 8.36 3 7 C0.525 6.01 0.525 6.01 -2 5 C-1.34 3.35 -0.68 1.7 0 0 Z " fill="#9DC5EA" transform="translate(84,21)"/>
<path d="M0 0 C0.33 0.66 0.66 1.32 1 2 C-6.63411856 6.6905556 -12.77782681 10.31150544 -22 9 C-22.33 7.68 -22.66 6.36 -23 5 C-21.63875 5.0309375 -21.63875 5.0309375 -20.25 5.0625 C-17.55264733 5.01062783 -15.5552 4.73005714 -13 4 C-12.34 4 -11.68 4 -11 4 C-11 4.66 -11 5.32 -11 6 C-7.37 4.02 -3.74 2.04 0 0 Z " fill="#AE9B6E" transform="translate(112,61)"/>
<path d="M0 0 C0 1.65 0 3.3 0 5 C-3.63 5.66 -7.26 6.32 -11 7 C-11.99 9.97 -12.98 12.94 -14 16 C-15.04692525 11.81229899 -14.85469996 10.67828787 -13.5625 6.75 C-13.27503906 5.85796875 -12.98757812 4.9659375 -12.69140625 4.046875 C-12.46324219 3.37140625 -12.23507813 2.6959375 -12 2 C-10.18769567 1.66560447 -8.3751509 1.33251176 -6.5625 1 C-5.04849609 0.7215625 -5.04849609 0.7215625 -3.50390625 0.4375 C-1 0 -1 0 0 0 Z " fill="#3C454E" transform="translate(148,82)"/>
<path d="M0 0 C0.66 0.33 1.32 0.66 2 1 C1.57589844 1.37769531 1.15179688 1.75539063 0.71484375 2.14453125 C-6.15450853 8.59115416 -11.07924711 16.46659666 -15 25 C-15.33 24.01 -15.66 23.02 -16 22 C-14.96875 20.01953125 -14.96875 20.01953125 -13.5 17.8125 C-10.6447564 13.01443224 -10.73321019 10.35949534 -12 5 C-11.13375 5.28875 -10.2675 5.5775 -9.375 5.875 C-6.09622443 6.34572945 -6.09622443 6.34572945 -4.265625 4.73046875 C-2.76569546 3.20554038 -1.35341444 1.65577299 0 0 Z " fill="#698EB6" transform="translate(35,29)"/>
<path d="M0 0 C0.50789063 0.38671875 1.01578125 0.7734375 1.5390625 1.171875 C4.77913441 3.62316536 7.99121965 6.03252664 11.4375 8.1875 C14 10 14 10 15 13 C9.24885994 12.11919477 4.47602019 9.70870244 0 6 C-0.625 2.625 -0.625 2.625 0 0 Z " fill="#374048" transform="translate(32,132)"/>
<path d="M0 0 C0.33 1.32 0.66 2.64 1 4 C-0.39176632 4.96423026 -1.7886223 5.92111602 -3.1875 6.875 C-3.96480469 7.40867188 -4.74210937 7.94234375 -5.54296875 8.4921875 C-7.9676609 9.98015439 -10.3333499 11.02428078 -13 12 C-12.84375 9.703125 -12.84375 9.703125 -12 7 C-9.53125 5.234375 -9.53125 5.234375 -6.5 3.75 C-5.4996875 3.24984375 -4.499375 2.7496875 -3.46875 2.234375 C-2.6540625 1.82703125 -1.839375 1.4196875 -1 1 C-0.67 0.67 -0.34 0.34 0 0 Z " fill="#414A53" transform="translate(118,133)"/>
<path d="M0 0 C3.875 0.875 3.875 0.875 5 2 C5.04063832 3.66617115 5.042721 5.33388095 5 7 C2.35261084 8.4606285 1.10551666 9 -2 9 C-2 8.01 -2 7.02 -2 6 C-4.31 5.67 -6.62 5.34 -9 5 C-6 3 -6 3 -2 3 C-1.34 2.01 -0.68 1.02 0 0 Z " fill="#E4C76A" transform="translate(83,95)"/>
<path d="M0 0 C-0.33 1.32 -0.66 2.64 -1 4 C-1.8971875 3.2575 -1.8971875 3.2575 -2.8125 2.5 C-7.48336634 0.30194525 -11.9195716 0.75976959 -17 1 C-17 0.01 -17 -0.98 -17 -2 C-10.48527286 -5.16429604 -6.18480544 -2.78922598 0 0 Z " fill="#F6F7F6" transform="translate(86,45)"/>
<path d="M0 0 C0.66 0.33 1.32 0.66 2 1 C2 1.66 2 2.32 2 3 C2.33 2.34 2.66 1.68 3 1 C5.64 1.66 8.28 2.32 11 3 C11 5.62113708 10.68707555 7.50935112 10 10 C7.5 8.6875 7.5 8.6875 5 7 C5 6.01 5 5.02 5 4 C4.34 4 3.68 4 3 4 C3 4.66 3 5.32 3 6 C1.35 5.67 -0.3 5.34 -2 5 C-1.34 3.35 -0.68 1.7 0 0 Z " fill="#6F7A89" transform="translate(91,24)"/>
<path d="M0 0 C0.99 0.99 1.98 1.98 3 3 C4.32 2.34 5.64 1.68 7 1 C8.125 5.75 8.125 5.75 7 8 C1.55072464 9.27536232 1.55072464 9.27536232 -1 8 C-1.75 5.0625 -1.75 5.0625 -2 2 C-1.34 1.34 -0.68 0.68 0 0 Z " fill="#60738A" transform="translate(72,122)"/>
<path d="M0 0 C2.97 0.495 2.97 0.495 6 1 C5.125 8.875 5.125 8.875 4 10 C2.33382885 10.04063832 0.66611905 10.042721 -1 10 C-1.91078492 7.44980222 -2.17843392 6.40445022 -1.0625 3.875 C-0.711875 3.25625 -0.36125 2.6375 0 2 C0 1.34 0 0.68 0 0 Z " fill="#7C97B3" transform="translate(23,59)"/>
<path d="M0 0 C0.33 0 0.66 0 1 0 C1 3.96 1 7.92 1 12 C1.66 12 2.32 12 3 12 C4.0625 13.8125 4.0625 13.8125 5 16 C4.67 16.99 4.34 17.98 4 19 C2 19 0 19 -2 19 C-1.34 12.73 -0.68 6.46 0 0 Z " fill="#85AEDA" transform="translate(120,68)"/>
<path d="M0 0 C0 1.32 0 2.64 0 4 C-3.96 4.99 -7.92 5.98 -12 7 C-11.67 5.35 -11.34 3.7 -11 2 C-7.12315913 0.80712589 -4.08378077 0 0 0 Z " fill="#313C47" transform="translate(97,133)"/>
<path d="M0 0 C0.99 0.33 1.98 0.66 3 1 C2.67 3.64 2.34 6.28 2 9 C0.02 9 -1.96 9 -4 9 C-4.33 6.36 -4.66 3.72 -5 1 C-2.525 1.495 -2.525 1.495 0 2 C0 1.34 0 0.68 0 0 Z " fill="#AD8E48" transform="translate(83,72)"/>
<path d="M0 0 C1.125 2.3125 1.125 2.3125 2 5 C1.01 6.485 1.01 6.485 0 8 C0 8.66 0 9.32 0 10 C-2.97 9.505 -2.97 9.505 -6 9 C-5.67 6.36 -5.34 3.72 -5 1 C-2 0 -2 0 0 0 Z " fill="#9CC2E6" transform="translate(48,29)"/>
<path d="M0 0 C3.63 0 7.26 0 11 0 C11 1.98 11 3.96 11 6 C8.69 5.67 6.38 5.34 4 5 C4 4.01 4 3.02 4 2 C3.34 2 2.68 2 2 2 C2 2.66 2 3.32 2 4 C1.34 4 0.68 4 0 4 C0 2.68 0 1.36 0 0 Z " fill="#A08341" transform="translate(99,83)"/>
<path d="M0 0 C1.32 0.66 2.64 1.32 4 2 C3.67 3.32 3.34 4.64 3 6 C2.34 6 1.68 6 1 6 C0.67 7.32 0.34 8.64 0 10 C-1.9375 9.6875 -1.9375 9.6875 -4 9 C-4.33 8.01 -4.66 7.02 -5 6 C-4.67 5.34 -4.34 4.68 -4 4 C-3.34 4 -2.68 4 -2 4 C-1.34 2.68 -0.68 1.36 0 0 Z " fill="#637990" transform="translate(115,103)"/>
<path d="M0 0 C3.63 0 7.26 0 11 0 C11 1.32 11 2.64 11 4 C7.26513121 4.5745952 3.78706732 5 0 5 C0 3.35 0 1.7 0 0 Z " fill="#8D7338" transform="translate(79,83)"/>
<path d="M0 0 C0 1.98 0 3.96 0 6 C-1.30324219 6.18175781 -1.30324219 6.18175781 -2.6328125 6.3671875 C-3.78523438 6.53476563 -4.93765625 6.70234375 -6.125 6.875 C-7.26195313 7.03742188 -8.39890625 7.19984375 -9.5703125 7.3671875 C-12.86078915 7.97431417 -15.85779103 8.86345633 -19 10 C-14.35051645 5.12911247 -14.35051645 5.12911247 -10.95703125 4.8046875 C-10.24933594 4.82789062 -9.54164062 4.85109375 -8.8125 4.875 C-6.9253125 4.936875 -6.9253125 4.936875 -5 5 C-5 4.01 -5 3.02 -5 2 C-1.125 0 -1.125 0 0 0 Z " fill="#BDAC85" transform="translate(90,76)"/>
<path d="M0 0 C2.54819774 2.26506466 3.76996322 4.36023455 5.0625 7.5 C6.21853373 10.28562344 7.30923391 12.46385086 9 15 C8.9765625 17.69921875 8.9765625 17.69921875 8.625 20.6875 C8.45871094 22.17830078 8.45871094 22.17830078 8.2890625 23.69921875 C8.14597656 24.83810547 8.14597656 24.83810547 8 26 C7.67 26 7.34 26 7 26 C6.82984375 25.10539062 6.6596875 24.21078125 6.484375 23.2890625 C5.12570605 16.51017166 3.56837273 10.22208663 0.76953125 3.890625 C0 2 0 2 0 0 Z " fill="#789EC8" transform="translate(127,45)"/>
<path d="M0 0 C2.375 -0.125 2.375 -0.125 5 0 C5.66 0.66 6.32 1.32 7 2 C9.68839385 2.26991906 12.29141936 2.08737357 15 2 C14.67 3.32 14.34 4.64 14 6 C7.94859592 6.41733821 4.82841331 6.10415132 0 2 C0 1.34 0 0.68 0 0 Z " fill="#D7AD40" transform="translate(65,59)"/>
<path d="M0 0 C1.98 0.99 3.96 1.98 6 3 C6 3.66 6 4.32 6 5 C6.54140625 5.26554687 7.0828125 5.53109375 7.640625 5.8046875 C10.37525582 7.19011305 13.06124141 8.65258458 15.75 10.125 C17.22726563 10.93324219 17.22726563 10.93324219 18.734375 11.7578125 C19.48203125 12.16773437 20.2296875 12.57765625 21 13 C16.93221437 14.35592854 15.26232504 13.21174078 11.49609375 11.44921875 C7.16576489 8.93505286 3.37918424 5.69074023 0 2 C0 1.34 0 0.68 0 0 Z " fill="#C8CBCF" transform="translate(40,101)"/>
<path d="M0 0 C0 0.33 0 0.66 0 1 C-2.64 1.33 -5.28 1.66 -8 2 C-8 4.97 -8 7.94 -8 11 C-8.99 11.495 -8.99 11.495 -10 12 C-10.33 9.36 -10.66 6.72 -11 4 C-11.94875 4.515625 -12.8975 5.03125 -13.875 5.5625 C-14.90625 6.036875 -15.9375 6.51125 -17 7 C-17.66 6.67 -18.32 6.34 -19 6 C-17.08588443 5.01585567 -15.1686033 4.03786651 -13.25 3.0625 C-12.18265625 2.51722656 -11.1153125 1.97195312 -10.015625 1.41015625 C-4.08679245 -1.36226415 -4.08679245 -1.36226415 0 0 Z " fill="#C3C2C3" transform="translate(70,33)"/>
<path d="M0 0 C1.04449911 3.13349732 0.93423645 3.98968256 0 7 C1.32 7.99 2.64 8.98 4 10 C2.35 11.32 0.7 12.64 -1 14 C-1 13.34 -1 12.68 -1 12 C-1.66 12 -2.32 12 -3 12 C-3.33 11.01 -3.66 10.02 -4 9 C-3.01 9 -2.02 9 -1 9 C-3.475 8.01 -3.475 8.01 -6 7 C-4.02 4.69 -2.04 2.38 0 0 Z " fill="#8EB7E3" transform="translate(111,104)"/>
<path d="M0 0 C0.33 0 0.66 0 1 0 C1.10957031 0.84820312 1.21914063 1.69640625 1.33203125 2.5703125 C2.49413457 11.1679875 4.07117269 19.53887754 6 28 C1.23017826 24.13871573 0.90165504 17.74805089 0 12 C-0.2137989 7.98236228 -0.19544824 4.01754719 0 0 Z " fill="#C6C6C7" transform="translate(32,70)"/>
<path d="M0 0 C4.49996683 -0.44117322 6.34611117 -0.52867608 9.9375 2.375 C12 5 12 5 12 7 C9.5625 6.625 9.5625 6.625 7 6 C6.67 5.34 6.34 4.68 6 4 C2.97065509 3.34227572 2.97065509 3.34227572 0 3 C0 2.01 0 1.02 0 0 Z " fill="#D5A833" transform="translate(73,45)"/>
<path d="M0 0 C1.65 0 3.3 0 5 0 C5.33 5.94 5.66 11.88 6 18 C5.34 18 4.68 18 4 18 C3.92652344 17.04287109 3.92652344 17.04287109 3.8515625 16.06640625 C3.77679688 15.24011719 3.70203125 14.41382812 3.625 13.5625 C3.55539063 12.73878906 3.48578125 11.91507813 3.4140625 11.06640625 C3.20910156 10.04353516 3.20910156 10.04353516 3 9 C2.34 8.67 1.68 8.34 1 8 C1.66 8 2.32 8 3 8 C3 5.69 3 3.38 3 1 C2.01 1.33 1.02 1.66 0 2 C0 1.34 0 0.68 0 0 Z " fill="#CBA95C" transform="translate(93,70)"/>
<path d="M0 0 C0 1.32 0 2.64 0 4 C0.845625 4.99 1.69125 5.98 2.5625 7 C3.366875 7.99 4.17125 8.98 5 10 C4.65234375 12.1875 4.65234375 12.1875 4 14 C2.84237881 12.78192862 1.6993417 11.54998765 0.5625 10.3125 C-0.07558594 9.62800781 -0.71367188 8.94351563 -1.37109375 8.23828125 C-3.16221098 5.77710578 -3.62798558 3.99183426 -4 1 C-2 0 -2 0 0 0 Z " fill="#566069" transform="translate(100,131)"/>
<path d="M0 0 C0.33 0.66 0.66 1.32 1 2 C3.58605332 2.4683265 3.58605332 2.4683265 6.5625 2.625 C8.08037109 2.73714844 8.08037109 2.73714844 9.62890625 2.8515625 C10.80259766 2.92503906 10.80259766 2.92503906 12 3 C11.67 3.99 11.34 4.98 11 6 C9.35425434 6.02688151 7.70838587 6.04634123 6.0625 6.0625 C5.14597656 6.07410156 4.22945313 6.08570312 3.28515625 6.09765625 C1 6 1 6 0 5 C-0.04063832 3.33382885 -0.042721 1.66611905 0 0 Z " fill="#566370" transform="translate(2,81)"/>
<path d="M0 0 C0 0.99 0 1.98 0 3 C1.98 3 3.96 3 6 3 C6.33 3.66 6.66 4.32 7 5 C5.7625 4.938125 4.525 4.87625 3.25 4.8125 C0.21788698 4.79637174 -0.82248296 4.89348977 -3.5 6.5 C-3.995 6.995 -4.49 7.49 -5 8 C-5.66 6.68 -6.32 5.36 -7 4 C-2.25 0 -2.25 0 0 0 Z " fill="#CEA947" transform="translate(73,45)"/>
<path d="M0 0 C0.33 0 0.66 0 1 0 C1 5.28 1 10.56 1 16 C-1.64 16 -4.28 16 -7 16 C-6.34 14.35 -5.68 12.7 -5 11 C-4.67 11.66 -4.34 12.32 -4 13 C-2.68 13 -1.36 13 0 13 C0 8.71 0 4.42 0 0 Z " fill="#C5A968" transform="translate(110,76)"/>
<path d="M0 0 C2.12183017 3.12033848 1.96732447 5.1010299 1.29296875 8.71875 C0.64447151 13.76838183 0.93121706 18.91770531 1 24 C-1 22 -1 22 -1.1953125 18.0859375 C-1.18200376 16.51550649 -1.15813602 14.94513779 -1.125 13.375 C-1.11597656 12.57320312 -1.10695313 11.77140625 -1.09765625 10.9453125 C-1.07406223 8.96341477 -1.03819065 6.98167019 -1 5 C-2.32 4.67 -3.64 4.34 -5 4 C-3.35 4 -1.7 4 0 4 C0 2.68 0 1.36 0 0 Z " fill="#7A9FC8" transform="translate(14,61)"/>
<path d="M0 0 C0.33 0 0.66 0 1 0 C1.375 2.6875 1.375 2.6875 1 6 C-0.80904117 8.2225363 -2.56028425 9.37352284 -5 11 C-5.99 11 -6.98 11 -8 11 C-7.73911731 7.47808373 -6.75685408 6.78724732 -4 4.375 C-3.01 3.59125 -2.02 2.8075 -1 2 C-0.67 1.34 -0.34 0.68 0 0 Z " fill="#4F5B68" transform="translate(141,44)"/>
<path d="M0 0 C1.32451032 0.87797837 2.63427808 1.77822214 3.9375 2.6875 C4.66839844 3.18636719 5.39929688 3.68523438 6.15234375 4.19921875 C8.40755968 6.3972199 8.66943308 7.91995584 9 11 C7.48694773 10.12639244 5.98978362 9.22522237 4.5 8.3125 C3.6646875 7.81363281 2.829375 7.31476562 1.96875 6.80078125 C0 5 0 5 -0.28125 2.29296875 C-0.1884375 1.53628906 -0.095625 0.77960937 0 0 Z " fill="#4D5762" transform="translate(8,45)"/>
<path d="M0 0 C0.68359375 1.671875 0.68359375 1.671875 1 4 C-0.21484375 6.578125 -0.21484375 6.578125 -1.9375 9.25 C-2.50339844 10.14203125 -3.06929687 11.0340625 -3.65234375 11.953125 C-4.09707031 12.62859375 -4.54179687 13.3040625 -5 14 C-6.32 13.34 -7.64 12.68 -9 12 C-8.01 12 -7.02 12 -6 12 C-5.7525 11.319375 -5.505 10.63875 -5.25 9.9375 C-3.75802092 6.43134917 -1.93164489 3.28379632 0 0 Z " fill="#3C4751" transform="translate(141,105)"/>
<path d="M0 0 C1.65 0 3.3 0 5 0 C5.33 0.66 5.66 1.32 6 2 C5.01 2.495 5.01 2.495 4 3 C3.67 3.99 3.34 4.98 3 6 C2 7 2 7 -1 8 C-1.66 7.67 -2.32 7.34 -3 7 C-2.67 5.68 -2.34 4.36 -2 3 C-1.34 3 -0.68 3 0 3 C0 2.01 0 1.02 0 0 Z " fill="#61707E" transform="translate(30,45)"/>
<path d="M0 0 C0.66 0.33 1.32 0.66 2 1 C1.07084243 2.62978448 0.13135466 4.25368275 -0.8125 5.875 C-1.59560547 7.23238281 -1.59560547 7.23238281 -2.39453125 8.6171875 C-4 11 -4 11 -7 13 C-6.46968862 8.4923533 -4.74778884 5.58045212 -2 2 C-1.34 2 -0.68 2 0 2 C0 1.34 0 0.68 0 0 Z " fill="#D6D8D9" transform="translate(114,92)"/>
<path d="M0 0 C2.97 0.495 2.97 0.495 6 1 C5.67 2.65 5.34 4.3 5 6 C4.01 6 3.02 6 2 6 C2.99 6.33 3.98 6.66 5 7 C5 7.66 5 8.32 5 9 C3.35 8.67 1.7 8.34 0 8 C0.2784375 7.13375 0.2784375 7.13375 0.5625 6.25 C1.04023546 3.79307475 0.75729364 2.35602466 0 0 Z " fill="#576575" transform="translate(21,72)"/>
<path d="M0 0 C3.63 0 7.26 0 11 0 C10.34 1.32 9.68 2.64 9 4 C6.1875 4.25 6.1875 4.25 3 4 C2.01 2.68 1.02 1.36 0 0 Z " fill="#F6F7F7" transform="translate(69,58)"/>
<path d="M0 0 C4.08165827 -0.51020728 5.52957297 -0.31361802 9 2 C9 2.66 9 3.32 9 4 C5.04 4 1.08 4 -3 4 C-2.01 2.68 -1.02 1.36 0 0 Z " fill="#F4F7FA" transform="translate(72,49)"/>
<path d="M0 0 C2.3431213 0.25561323 4.67843403 0.59270772 7 1 C7.33 1.66 7.66 2.32 8 3 C7.67 3.66 7.34 4.32 7 5 C7.66 5.33 8.32 5.66 9 6 C4.545 5.01 4.545 5.01 0 4 C0 2.68 0 1.36 0 0 Z " fill="#2B343E" transform="translate(53,133)"/>
<path d="M0 0 C4.67105792 1.55701931 8.08705685 4.08447373 12 7 C10 8 10 8 7.6171875 7.22265625 C6.71226563 6.83980469 5.80734375 6.45695312 4.875 6.0625 C3.96492188 5.68222656 3.05484375 5.30195312 2.1171875 4.91015625 C1.06917969 4.45962891 1.06917969 4.45962891 0 4 C0 2.68 0 1.36 0 0 Z " fill="#DDB241" transform="translate(75,36)"/>
<path d="M0 0 C1.27875 0.103125 2.5575 0.20625 3.875 0.3125 C4.95394531 0.39951172 4.95394531 0.39951172 6.0546875 0.48828125 C8 1 8 1 10 4 C10 4.99 10 5.98 10 7 C5.61308455 6.49381745 3.15608721 3.86917019 0 1 C0 0.67 0 0.34 0 0 Z " fill="#93BCE5" transform="translate(98,36)"/>
<path d="M0 0 C0.33 1.32 0.66 2.64 1 4 C-0.21484375 5.921875 -0.21484375 5.921875 -1.9375 7.75 C-2.50339844 8.36359375 -3.06929687 8.9771875 -3.65234375 9.609375 C-4.31943359 10.29773438 -4.31943359 10.29773438 -5 11 C-5.66 10.01 -6.32 9.02 -7 8 C-4.69 5.36 -2.38 2.72 0 0 Z " fill="#5D6975" transform="translate(52,133)"/>
<path d="M0 0 C2.46800047 1.15173355 4.04783565 2.04783565 6 4 C6.125 6.625 6.125 6.625 6 9 C4.68 8.67 3.36 8.34 2 8 C2.33 6.68 2.66 5.36 3 4 C1.68 4.33 0.36 4.66 -1 5 C-0.67 3.35 -0.34 1.7 0 0 Z " fill="#536071" transform="translate(43,112)"/>
<path d="M0 0 C4.90745353 1.48710713 8.51153881 4.32273034 12 8 C13.4375 10.875 13.4375 10.875 14 13 C12.34049923 11.57757077 10.68126579 10.15484775 9.0234375 8.73046875 C7.67961097 7.5812117 6.33066453 6.43791326 4.9765625 5.30078125 C4.34492187 4.76839844 3.71328125 4.23601563 3.0625 3.6875 C2.47597656 3.19636719 1.88945313 2.70523437 1.28515625 2.19921875 C0.86105469 1.80347656 0.43695313 1.40773438 0 1 C0 0.67 0 0.34 0 0 Z " fill="#A3C7E5" transform="translate(109,24)"/>
<path d="M0 0 C0.33 1.65 0.66 3.3 1 5 C-1.64 5 -4.28 5 -7 5 C-6.67 3.68 -6.34 2.36 -6 1 C-3.92446352 0.4465236 -2.15634036 0 0 0 Z " fill="#C2A258" transform="translate(85,87)"/>
<path d="M0 0 C3.68006822 3.38168431 5.9785845 6.42521756 8 11 C7.01 11.495 7.01 11.495 6 12 C6 11.34 6 10.68 6 10 C5.01 9.67 4.02 9.34 3 9 C2.05078125 6.93359375 2.05078125 6.93359375 1.3125 4.4375 C1.06113281 3.61121094 0.80976562 2.78492188 0.55078125 1.93359375 C0.36902344 1.29550781 0.18726562 0.65742187 0 0 Z " fill="#DDE0E3" transform="translate(108,46)"/>
<path d="M0 0 C2 3 2 3 1.625 5.1875 C1.41875 5.785625 1.2125 6.38375 1 7 C2.65 6.67 4.3 6.34 6 6 C6 6.99 6 7.98 6 9 C3.25 9.375 3.25 9.375 0 9 C-2.375 6 -2.375 6 -4 3 C-2.68 2.01 -1.36 1.02 0 0 Z " fill="#A2CAEF" transform="translate(113,38)"/>
<path d="M0 0 C1.98 0 3.96 0 6 0 C6 2.64 6 5.28 6 8 C4.02 8.33 2.04 8.66 0 9 C0.33 7.68 0.66 6.36 1 5 C2.32 5 3.64 5 5 5 C5 3.68 5 2.36 5 1 C3.35 1 1.7 1 0 1 C0 0.67 0 0.34 0 0 Z " fill="#AA8C4A" transform="translate(85,82)"/>
<path d="M0 0 C5.19591612 0.44033187 8.66335081 0.88303339 13 4 C10 5 10 5 7 4 C6.01 5.485 6.01 5.485 5 7 C4.34 6.67 3.68 6.34 3 6 C3.66 4.68 4.32 3.36 5 2 C3.35 1.67 1.7 1.34 0 1 C0 0.67 0 0.34 0 0 Z " fill="#B9A981" transform="translate(81,43)"/>
<path d="M0 0 C5.28 0.33 10.56 0.66 16 1 C16 1.33 16 1.66 16 2 C14.62714844 2.03867188 14.62714844 2.03867188 13.2265625 2.078125 C11.44378906 2.16320312 11.44378906 2.16320312 9.625 2.25 C8.44164063 2.29640625 7.25828125 2.3428125 6.0390625 2.390625 C2.88708247 2.65648799 2.88708247 2.65648799 1.5859375 5.046875 C1.39257812 5.69140625 1.19921875 6.3359375 1 7 C0.67 4.69 0.34 2.38 0 0 Z " fill="#84B0E4" transform="translate(66,137)"/>
<path d="M0 0 C0.99 0.33 1.98 0.66 3 1 C3 1.33 3 1.66 3 2 C6.63 2.33 10.26 2.66 14 3 C14 3.33 14 3.66 14 4 C5.585 4.495 5.585 4.495 -3 5 C-2.01 3.68 -1.02 2.36 0 1 C0 0.67 0 0.34 0 0 Z " fill="#8EB7E1" transform="translate(67,26)"/>
<path d="M0 0 C4.62609198 -0.3227506 7.28026121 0.15549386 11 3 C11 3.66 11 4.32 11 5 C11.99 5.33 12.98 5.66 14 6 C13.01 6.495 13.01 6.495 12 7 C9.1796875 5.78515625 9.1796875 5.78515625 5.875 4.0625 C4.77929688 3.49660156 3.68359375 2.93070313 2.5546875 2.34765625 C1.71164063 1.90292969 0.86859375 1.45820313 0 1 C0 0.67 0 0.34 0 0 Z " fill="#A3C8EB" transform="translate(95,17)"/>
<path d="M0 0 C0.928125 0.0825 1.85625 0.165 2.8125 0.25 C0.8325 1.24 0.8325 1.24 -1.1875 2.25 C-1.1875 3.24 -1.1875 4.23 -1.1875 5.25 C-2.1775 5.25 -3.1675 5.25 -4.1875 5.25 C-3.8575 6.57 -3.5275 7.89 -3.1875 9.25 C-4.1775 9.25 -5.1675 9.25 -6.1875 9.25 C-6.42963848 6.34433826 -6.34935671 4.58270547 -5.0625 1.9375 C-3.1875 0.25 -3.1875 0.25 0 0 Z " fill="#8AB8E8" transform="translate(75.1875,118.75)"/>
<path d="M0 0 C1.98 0 3.96 0 6 0 C5.690625 0.53625 5.38125 1.0725 5.0625 1.625 C3.82172561 4.3984957 3.4090325 7.00042837 3 10 C2.34 10 1.68 10 1 10 C1 7.33333333 1 4.66666667 1 2 C0.67 1.34 0.34 0.68 0 0 Z " fill="#6682A4" transform="translate(66,119)"/>
<path d="M0 0 C0 0.99 0 1.98 0 3 C-1.36125 2.9690625 -1.36125 2.9690625 -2.75 2.9375 C-5.42672588 2.9889755 -7.46988052 3.2215017 -10 4 C-10.33 3.01 -10.66 2.02 -11 1 C-7.27569643 0.30710631 -3.78916254 -0.11144596 0 0 Z " fill="#5B6875" transform="translate(147,83)"/>
<path d="M0 0 C1.65 0.33 3.3 0.66 5 1 C5 3 5 3 3.5 4.625 C3.005 5.07875 2.51 5.5325 2 6 C2.99 6.33 3.98 6.66 5 7 C3.68 7.33 2.36 7.66 1 8 C-0.42944945 5.64561267 -1.08661261 4.51967567 -0.625 1.75 C-0.41875 1.1725 -0.2125 0.595 0 0 Z " fill="#5A6879" transform="translate(124,75)"/>
<path d="M0 0 C0.33 0 0.66 0 1 0 C0.40984815 5.50808397 -0.56663769 10.64878069 -2 16 C-2.33 16 -2.66 16 -3 16 C-3.19008264 4.78512397 -3.19008264 4.78512397 0 0 Z " fill="#8DB3DB" transform="translate(18,49)"/>
<path d="M0 0 C2.475 0.99 2.475 0.99 5 2 C4.34 3.98 3.68 5.96 3 8 C2.01 7.34 1.02 6.68 0 6 C-0.1875 2.875 -0.1875 2.875 0 0 Z " fill="#788C9D" transform="translate(98,26)"/>
<path d="M0 0 C0 1.98 0 3.96 0 6 C-1.65 6 -3.3 6 -5 6 C-5 4.68 -5 3.36 -5 2 C-1.125 0 -1.125 0 0 0 Z " fill="#FDFBF6" transform="translate(90,76)"/>
<path d="M0 0 C2.125 0.375 2.125 0.375 4 1 C4 1.99 4 2.98 4 4 C2.35 4.33 0.7 4.66 -1 5 C-1.33 4.01 -1.66 3.02 -2 2 C-1.34 1.34 -0.68 0.68 0 0 Z " fill="#667786" transform="translate(123,57)"/>
<path d="M0 0 C0.78375 0.185625 1.5675 0.37125 2.375 0.5625 C4.97089775 1.25962266 4.97089775 1.25962266 7 0 C6.6875 2.375 6.6875 2.375 6 5 C5.01 5.66 4.02 6.32 3 7 C2.01 4.69 1.02 2.38 0 0 Z " fill="#9FC7EA" transform="translate(38,37)"/>
<path d="M0 0 C2.64752004 2.57784846 4.94432065 4.91648098 7 8 C2.25 7.125 2.25 7.125 0 6 C0 4.02 0 2.04 0 0 Z " fill="#48535F" transform="translate(32,132)"/>
<path d="M0 0 C2.4375 0.6875 2.4375 0.6875 5 2 C5.8125 4.625 5.8125 4.625 6 7 C5.01 7 4.02 7 3 7 C3.33 5.68 3.66 4.36 4 3 C3.34 3.66 2.68 4.32 2 5 C1.01 5 0.02 5 -1 5 C-0.67 3.35 -0.34 1.7 0 0 Z " fill="#9BC3E6" transform="translate(27,52)"/>
<path d="M0 0 C4.95696581 1.23924145 7.11658466 2.78577758 10 7 C7.29068581 6.84518205 5.53415961 6.51827919 3.5546875 4.59765625 C2.32320358 3.10228292 1.1570163 1.5537076 0 0 Z " fill="#E0E1E2" transform="translate(95,36)"/>
<path d="M0 0 C1.32 0 2.64 0 4 0 C4.33 1.32 4.66 2.64 5 4 C2.69 4 0.38 4 -2 4 C-1.34 2.68 -0.68 1.36 0 0 Z " fill="#B59D66" transform="translate(93,88)"/>
<path d="M0 0 C3.34252724 -0.07427838 5.8035914 -0.06546953 9 1 C9 1.66 9 2.32 9 3 C4.545 3.495 4.545 3.495 0 4 C0 2.68 0 1.36 0 0 Z " fill="#C7AD6F" transform="translate(103,72)"/>
<path d="M0 0 C2.475 0.495 2.475 0.495 5 1 C5.33 2.98 5.66 4.96 6 7 C4.68 6.67 3.36 6.34 2 6 C1.855625 5.38125 1.71125 4.7625 1.5625 4.125 C1.06847775 1.96741678 1.06847775 1.96741678 0 0 Z " fill="#88B4E3" transform="translate(77,121)"/>
<path d="M0 0 C1.875 0.3125 1.875 0.3125 4 1 C4.66 1.99 5.32 2.98 6 4 C5.236875 3.95875 4.47375 3.9175 3.6875 3.875 C0.77281584 3.77919176 0.77281584 3.77919176 -2 6 C-2 4.68 -2 3.36 -2 2 C-1.34 2 -0.68 2 0 2 C0 1.34 0 0.68 0 0 Z " fill="#98C2EC" transform="translate(122,54)"/>
<path d="M0 0 C-0.33 1.65 -0.66 3.3 -1 5 C-2.32 5 -3.64 5 -5 5 C-5 4.01 -5 3.02 -5 2 C-6.32 1.67 -7.64 1.34 -9 1 C-5.92677456 0.08941469 -3.19902639 -0.08886184 0 0 Z " fill="#D9C590" transform="translate(78,52)"/>
<path d="M0 0 C0.66 1.65 1.32 3.3 2 5 C0.68 5.33 -0.64 5.66 -2 6 C-2.66 4.35 -3.32 2.7 -4 1 C-2 0 -2 0 0 0 Z " fill="#667584" transform="translate(48,29)"/>
<path d="M0 0 C1.5625 1.25 1.5625 1.25 3 3 C2.6875 5.1875 2.6875 5.1875 2 7 C0.68 6.34 -0.64 5.68 -2 5 C-1.34 3.35 -0.68 1.7 0 0 Z " fill="#6C7A87" transform="translate(84,21)"/>
<path d="M0 0 C2.97 0.495 2.97 0.495 6 1 C3.61426621 2.89213369 1.92824652 4.02391783 -1 5 C-0.67 3.35 -0.34 1.7 0 0 Z " fill="#343E47" transform="translate(106,140)"/>
<path d="M0 0 C0.99 0.66 1.98 1.32 3 2 C3.1875 4.625 3.1875 4.625 3 7 C0.13275314 6.42655063 -0.8614515 6.1385485 -3 4 C-2.01 3.34 -1.02 2.68 0 2 C0 1.34 0 0.68 0 0 Z " fill="#36475B" transform="translate(25,111)"/>
<path d="M0 0 C2.13093906 1.06546953 3.36587557 2.29159719 5 4 C2 5 2 5 -2 5 C-1.34 3.35 -0.68 1.7 0 0 Z " fill="#576575" transform="translate(35,104)"/>
<path d="M0 0 C2.97 0.495 2.97 0.495 6 1 C5.67 2.32 5.34 3.64 5 5 C3.35 4.67 1.7 4.34 0 4 C0 2.68 0 1.36 0 0 Z " fill="#637688" transform="translate(23,59)"/>
<path d="M0 0 C0 1.32 0 2.64 0 4 C0.33 4.66 0.66 5.32 1 6 C0.34 6.66 -0.32 7.32 -1 8 C-3.35953094 5.64046906 -3.49141413 4.22104383 -4 1 C-2 0 -2 0 0 0 Z " fill="#56687E" transform="translate(100,131)"/>
<path d="M0 0 C0.33 0.99 0.66 1.98 1 3 C-1 6 -1 6 -3.625 6.6875 C-4.800625 6.8421875 -4.800625 6.8421875 -6 7 C-4.02 4.69 -2.04 2.38 0 0 Z " fill="#84AEDE" transform="translate(111,104)"/>
<path d="M0 0 C2.16874252 0.50603992 3.99967627 0.99983813 6 2 C6.33 1.34 6.66 0.68 7 0 C7.33 1.32 7.66 2.64 8 4 C6.68 4.33 5.36 4.66 4 5 C2.68 3.35 1.36 1.7 0 0 Z " fill="#DDB94B" transform="translate(60,99)"/>
<path d="M0 0 C2.35981813 0.93578995 4.69631264 1.93347808 7 3 C3.61981469 4.04005702 0.5219721 4.08004482 -3 4 C-2.67 3.01 -2.34 2.02 -2 1 C-1.34 0.67 -0.68 0.34 0 0 Z " fill="#8FB8E4" transform="translate(120,86)"/>
<path d="M0 0 C0.33 0 0.66 0 1 0 C1 1.65 1 3.3 1 5 C-2.63 5.33 -6.26 5.66 -10 6 C-6 3 -6 3 -2.75 3.3125 C-1.8425 3.539375 -0.935 3.76625 0 4 C0 2.68 0 1.36 0 0 Z " fill="#48525C" transform="translate(147,82)"/>
<path d="M0 0 C0.99 0 1.98 0 3 0 C3 1.65 3 3.3 3 5 C1.68 5 0.36 5 -1 5 C-0.67 3.35 -0.34 1.7 0 0 Z " fill="#AD8D43" transform="translate(94,83)"/>
<path d="M0 0 C0 0.99 0 1.98 0 3 C1.98 3 3.96 3 6 3 C6.33 3.66 6.66 4.32 7 5 C5.54054712 4.91291331 4.08234132 4.80473093 2.625 4.6875 C1.81289062 4.62949219 1.00078125 4.57148437 0.1640625 4.51171875 C-2 4 -2 4 -4 1 C-2 0 -2 0 0 0 Z " fill="#C2A24F" transform="translate(73,45)"/>
<path d="M0 0 C2.475 0.495 2.475 0.495 5 1 C5.66 3.31 6.32 5.62 7 8 C4.35247996 5.42215154 2.05567935 3.08351902 0 0 Z " fill="#C0C2C4" transform="translate(103,43)"/>
<path d="M0 0 C0.33 0.66 0.66 1.32 1 2 C3.32156597 2.40729228 5.6568787 2.74438677 8 3 C8 3.33 8 3.66 8 4 C5.36 4.33 2.72 4.66 0 5 C0 3.35 0 1.7 0 0 Z " fill="#4C5762" transform="translate(2,81)"/>
<path d="M0 0 C1.98 0 3.96 0 6 0 C6 0.99 6 1.98 6 3 C4.02 3 2.04 3 0 3 C0 2.01 0 1.02 0 0 Z " fill="#8F7438" transform="translate(79,78)"/>
<path d="M0 0 C1.98 0 3.96 0 6 0 C6 1.98 6 3.96 6 6 C5.34 4.68 4.68 3.36 4 2 C2.68 2 1.36 2 0 2 C0 1.34 0 0.68 0 0 Z " fill="#DCAC30" transform="translate(78,54)"/>
<path d="M0 0 C2.125 0.9375 2.125 0.9375 4 2 C3.67 3.32 3.34 4.64 3 6 C1.35 4.35 -0.3 2.7 -2 1 C-1.34 0.67 -0.68 0.34 0 0 Z " fill="#3C464F" transform="translate(13,50)"/>
<path d="M0 0 C3 1 3 1 7 3 C2.545 3.495 2.545 3.495 -2 4 C-2 3.01 -2 2.02 -2 1 C-1.34 0.67 -0.68 0.34 0 0 Z " fill="#EFEBDF" transform="translate(71,42)"/>
<path d="M0 0 C3.875 1.75 3.875 1.75 5 4 C4.34 4 3.68 4 3 4 C3 4.66 3 5.32 3 6 C2.01 6 1.02 6 0 6 C0 4.02 0 2.04 0 0 Z " fill="#6D7C8B" transform="translate(63,22)"/>
<path d="M0 0 C1.98 0.495 1.98 0.495 4 1 C4 1.99 4 2.98 4 4 C2.66666667 4 1.33333333 4 0 4 C0 2.68 0 1.36 0 0 Z " fill="#7C95B3" transform="translate(56,121)"/>
<path d="M0 0 C1.67542976 0.28604898 3.34385343 0.61781233 5 1 C5 1.66 5 2.32 5 3 C3.35 3.33 1.7 3.66 0 4 C-0.33 3.01 -0.66 2.02 -1 1 C-0.67 0.67 -0.34 0.34 0 0 Z " fill="#29323B" transform="translate(20,116)"/>
<path d="M0 0 C0.66 0 1.32 0 2 0 C2 0.66 2 1.32 2 2 C2.66 2.33 3.32 2.66 4 3 C3.67 3.99 3.34 4.98 3 6 C0.525 5.01 0.525 5.01 -2 4 C-1.34 2.68 -0.68 1.36 0 0 Z " fill="#546272" transform="translate(29,94)"/>
<path d="M0 0 C1.65 0 3.3 0 5 0 C5 1.65 5 3.3 5 5 C4.67 4.01 4.34 3.02 4 2 C3.34 2 2.68 2 2 2 C2 2.66 2 3.32 2 4 C1.34 4 0.68 4 0 4 C0 2.68 0 1.36 0 0 Z " fill="#6A5527" transform="translate(99,83)"/>
<path d="M0 0 C0.33 0.99 0.66 1.98 1 3 C0 4 0 4 -3.0625 4.0625 C-4.5165625 4.0315625 -4.5165625 4.0315625 -6 4 C-6 3.01 -6 2.02 -6 1 C-4.02 0.67 -2.04 0.34 0 0 Z " fill="#DFB545" transform="translate(79,61)"/>
<path d="M0 0 C0.66 0.33 1.32 0.66 2 1 C0.6875 3.5 0.6875 3.5 -1 6 C-1.99 6 -2.98 6 -4 6 C-3.6875 4.125 -3.6875 4.125 -3 2 C-2.01 1.34 -1.02 0.68 0 0 Z " fill="#3A434C" transform="translate(137,49)"/>
</svg>
